<svg xmlns="http://www.w3.org/2000/svg" viewBox="0 0 250 250"><defs><style>.cls-1,.cls-10,.cls-2,.cls-3,.cls-4,.cls-5,.cls-7,.cls-8,.cls-9{fill:none;stroke-linecap:round;stroke-linejoin:round;stroke-width:8px;}.cls-1,.cls-7{stroke:#002cb0;stroke-dasharray:100;}.cls-2,.cls-8{stroke:#0035c0;stroke-dasharray:70;}.cls-3,.cls-9{stroke:#003ed0;}.cls-10,.cls-3,.cls-4,.cls-9{stroke-dasharray:65;}.cls-10,.cls-4{stroke:#0047df;}.cls-5{stroke:#0050ef;stroke-dasharray:1;}.cls-6{fill:#0059ff;}.cls-10,.cls-7,.cls-8,.cls-9{opacity:0.28;}</style></defs><g id="Layer_3" data-name="Layer 3"><circle class="cls-1" cx="125" cy="125" r="104.37"/><circle class="cls-2" cx="125" cy="125" r="83.69"/><circle class="cls-3" cx="125" cy="125" r="65.05"/><path class="cls-4" d="M161.58,152.1a45.52,45.52,0,1,1-9.48-63.67A45.52,45.52,0,0,1,161.58,152.1Z"/><path class="cls-5" d="M134.87,145.75c-11.81,5.67-25.8,1-31.25-10.49s-.3-25.35,11.52-31,25.79-1,31.24,10.49S146.68,140.09,134.87,145.75Z"/><path class="cls-6" d="M129,133.43a9.34,9.34,0,1,1,4.68-12.6A9.45,9.45,0,0,1,129,133.43Z"/><circle class="cls-7" cx="125" cy="125" r="104.37"/><circle class="cls-8" cx="125" cy="125" r="83.69"/><circle class="cls-9" cx="125" cy="125" r="65.05"/><path class="cls-10" d="M142.73,166.92a45.52,45.52,0,1,1,24.2-59.65A45.51,45.51,0,0,1,142.73,166.92Z"/></g></svg>