<svg width="19" height="20" viewBox="0 0 19 20" fill="none" xmlns="http://www.w3.org/2000/svg">
<path fill-rule="evenodd" clip-rule="evenodd" d="M9.49961 1C13.1723 1 16.1496 2.79 16.1496 5C16.1496 7.21 13.1723 9 9.49961 9C5.82691 9 2.84961 7.21 2.84961 5C2.84961 2.79 5.82691 1 9.49961 1ZM14.9089 9.13C15.3497 8.866 15.7734 8.547 16.1496 8.178V10C16.1496 12.21 13.1723 14 9.49961 14C5.82691 14 2.84961 12.21 2.84961 10V8.178C3.22581 8.548 3.64951 8.866 4.09031 9.131C5.54571 10.006 7.46091 10.5 9.49961 10.5C11.5383 10.5 13.4535 10.006 14.9089 9.13ZM2.84961 13.179V15C2.84961 17.21 5.82691 19 9.49961 19C13.1723 19 16.1496 17.21 16.1496 15V13.178C15.7734 13.548 15.3497 13.866 14.9089 14.131C13.4535 15.006 11.5383 15.5 9.49961 15.5C7.46091 15.5 5.54571 15.006 4.09031 14.13C3.6433 13.8644 3.22697 13.5453 2.84961 13.179Z" fill="#398FDB"/>
</svg>
