<svg width="16" height="17" viewBox="0 0 16 17" fill="none" xmlns="http://www.w3.org/2000/svg">
<path d="M9.586 1.62092C9.61357 1.48351 9.59766 1.34027 9.54072 1.21347C9.48379 1.08667 9.38902 0.983398 9.27115 0.919716C9.15329 0.856033 9.01892 0.835504 8.88895 0.861318C8.75897 0.887133 8.64065 0.957846 8.5524 1.06247L1.7524 9.13747C1.67518 9.22919 1.6246 9.3427 1.60677 9.4643C1.58893 9.58589 1.6046 9.71038 1.65188 9.82272C1.69917 9.93506 1.77604 10.0305 1.87323 10.0974C1.97042 10.1643 2.08377 10.2 2.1996 10.2H7.4572L6.4132 15.379C6.38562 15.5164 6.40154 15.6597 6.45847 15.7865C6.51541 15.9133 6.61017 16.0165 6.72804 16.0802C6.8459 16.1439 6.98027 16.1644 7.11025 16.1386C7.24023 16.1128 7.35854 16.0421 7.4468 15.9375L14.2468 7.86247C14.324 7.77074 14.3746 7.65723 14.3924 7.53563C14.4103 7.41404 14.3946 7.28956 14.3473 7.17721C14.3 7.06487 14.2231 6.96947 14.126 6.90253C14.0288 6.83559 13.9154 6.79997 13.7996 6.79997H8.542L9.586 1.62092Z" fill="#2C88D9"/>
</svg>
