<svg width="23" height="23" viewBox="0 0 23 23" fill="none" xmlns="http://www.w3.org/2000/svg">
<path fill-rule="evenodd" clip-rule="evenodd" d="M19.5498 11.5C19.5498 11.2712 19.4589 11.0519 19.2972 10.8901C19.1354 10.7284 18.9161 10.6375 18.6873 10.6375H6.45361L11.2353 6.08349C11.3208 6.00594 11.3899 5.91201 11.4384 5.80728C11.4869 5.70255 11.5139 5.58914 11.5178 5.47378C11.5217 5.35841 11.5024 5.24344 11.4611 5.13567C11.4197 5.02791 11.3572 4.92953 11.2771 4.84639C11.197 4.76324 11.1011 4.69701 10.995 4.65163C10.8888 4.60624 10.7747 4.58262 10.6592 4.58216C10.5438 4.5817 10.4295 4.60442 10.323 4.64897C10.2165 4.69351 10.12 4.75898 10.0393 4.84149L3.7143 10.879C3.63083 10.9594 3.56443 11.0559 3.51908 11.1626C3.47373 11.2693 3.45036 11.3841 3.45036 11.5C3.45036 11.6159 3.47373 11.7307 3.51908 11.8374C3.56443 11.9441 3.63083 12.0405 3.7143 12.121L10.0393 18.1585C10.12 18.241 10.2165 18.3065 10.323 18.351C10.4295 18.3956 10.5438 18.4183 10.6592 18.4178C10.7747 18.4174 10.8888 18.3937 10.995 18.3484C11.1011 18.303 11.197 18.2367 11.2771 18.1536C11.3572 18.0704 11.4197 17.9721 11.4611 17.8643C11.5024 17.7565 11.5217 17.6416 11.5178 17.5262C11.5139 17.4108 11.4869 17.2974 11.4384 17.1927C11.3899 17.088 11.3208 16.994 11.2353 16.9165L6.45361 12.3625H18.6873C18.9161 12.3625 19.1354 12.2716 19.2972 12.1099C19.4589 11.9481 19.5498 11.7287 19.5498 11.5Z" fill="#398FDB"/>
</svg>
