<svg xmlns="http://www.w3.org/2000/svg" viewBox="0 0 304 304"><defs><style>.cls-1{isolation:isolate;}.cls-10,.cls-11,.cls-14,.cls-2,.cls-7{fill:none;}.cls-2{stroke:#0a0b0f;stroke-width:1.51px;}.cls-10,.cls-11,.cls-13,.cls-14,.cls-2,.cls-6,.cls-7,.cls-9{stroke-linecap:round;}.cls-10,.cls-11,.cls-13,.cls-14,.cls-2,.cls-7,.cls-9{stroke-linejoin:round;}.cls-3{fill:#07080d;}.cls-18,.cls-4{fill:#3f81ff;}.cls-5,.cls-6,.cls-8,.cls-9{fill:#fcfcfc;}.cls-10,.cls-11,.cls-13,.cls-14,.cls-6,.cls-7,.cls-8,.cls-9{stroke:#000;}.cls-6,.cls-8{stroke-miterlimit:10;}.cls-10,.cls-6,.cls-8{stroke-width:1.64px;}.cls-13,.cls-7{stroke-width:1.59px;}.cls-9{stroke-width:1.24px;}.cls-11{stroke-width:1.41px;}.cls-12{fill:#fdccbf;}.cls-13{fill:#fdfefe;}.cls-14{stroke-width:1.37px;}.cls-15,.cls-17{mix-blend-mode:multiply;}.cls-16{fill:#e1e1e1;}.cls-17{fill:#adcfd8;}.cls-18{font-size:30px;font-family:Broadway;}.cls-19{letter-spacing:-0.01em;}</style></defs><g class="cls-1"><g id="scene_13" data-name="scene 13"><rect class="cls-2" x="73.3" y="111.65" width="152.69" height="101.63" rx="14.32"/><rect class="cls-2" x="81.27" y="121.44" width="135.4" height="74.47"/><path class="cls-2" d="M139.35,208.84h25.09a1.27,1.27,0,0,1,1.24,1l9.44,38.11a1.28,1.28,0,0,1-1.24,1.59H130.62a1.28,1.28,0,0,1-1.25-1.57l8.73-38.1A1.27,1.27,0,0,1,139.35,208.84Z"/><path class="cls-3" d="M73.65,193.3h152.8a0,0,0,0,1,0,0v6.92A12.76,12.76,0,0,1,213.68,213H86.42a12.76,12.76,0,0,1-12.76-12.76V193.3A0,0,0,0,1,73.65,193.3Z"/><path class="cls-4" d="M177.27,113h0A13.77,13.77,0,0,1,191,126.74v18.07a0,0,0,0,1,0,0H163.5a0,0,0,0,1,0,0V126.74A13.77,13.77,0,0,1,177.27,113Z" transform="translate(-41.27 145.63) rotate(-40.4)"/><polygon class="cls-4" points="126.19 111.76 153.96 107.48 162.76 106.98 180.3 114.22 187.62 193.8 121.12 193.58 126.19 111.76"/><path class="cls-5" d="M120.8,184.7c1.49,1.26,3,2.48,4.65,3.68,9,6.74,20.44-6.68,11.32-13.48a55,55,0,0,1-12.62-12.63,13.64,13.64,0,0,1-.78-1.32"/><path class="cls-6" d="M123.37,161c-1.83-3.41-4.57-10.39-3.3-11.48,15.31-13.06,16.38-23.53,2.43-26.77,0,0-26.79,16.48-22.12,32.26,3.66,12.35,10.86,21.71,20.42,29.74"/><path class="cls-4" d="M109.85,128.3l20.74,18.11,11.88-13.61a13.77,13.77,0,0,0-1.32-19.43h0c-5.72-5-15.76-3.19-20.76,2.54Z"/><polyline class="cls-7" points="121.73 114.69 109.85 128.3 130.59 146.41 137.81 138.13"/><path class="cls-8" d="M148.41,81.8a3,3,0,1,0,1.79,5.29"/><path class="cls-9" d="M162.34,98.42l-7.22-.89,0,10.74a3.6,3.6,0,0,0,3.6,3.6h0a3.6,3.6,0,0,0,3.6-3.6Z"/><path class="cls-10" d="M159.1,68.89h5.1a9.42,9.42,0,0,1,9.42,9.42v13A6.65,6.65,0,0,1,167,98H155.84a6.17,6.17,0,0,1-6.17-6.17V78.32a9.42,9.42,0,0,1,9.42-9.42Z" transform="translate(335.44 137.21) rotate(169.89)"/><path class="cls-11" d="M161.18,81.57l.08,1.06v-.81"/><path class="cls-11" d="M171.64,80.47l.08,1.07v-.81"/><path class="cls-10" d="M167.69,84.13a4.78,4.78,0,0,0,1-.1"/><path class="cls-10" d="M165.78,89.18a4.35,4.35,0,0,1-.8-.48"/><path class="cls-10" d="M169,83.89c-.23-.82-.44-1.65-.61-2.48"/><circle class="cls-12" cx="158.68" cy="86.94" r="2.54"/><polygon points="162.22 98.25 155.29 105.58 155.49 98.17 162.22 98.25"/><path d="M175.55,65.63l-.16-.2c-1.18-1.44-4.31-.75-4.93-.6-1.4.35-3.46.78-5.64,1.24-4,.84-7.39,1.57-9.82,2.25a14.64,14.64,0,0,0-2,.55,8.33,8.33,0,0,0-4.41,3.41c-1.44,2.44-1.09,5.31-.56,8.29l.46,2.61L150,83a.68.68,0,0,1-.14.42A40.48,40.48,0,0,1,154,81.05c.94-.5,1.48-.79,1.7-.93a65.74,65.74,0,0,0,7.2-5.56l.89,0c.78,0,1.57.06,2.36.06a15.72,15.72,0,0,0,3.57-.34,6.61,6.61,0,0,0,3.25-2.1c.25-.24.49-.48.75-.71,1.44-1.28,1.91-4.12,1.87-5.61Z"/><path class="cls-11" d="M161.64,79.11a3.1,3.1,0,0,0-2.21.82"/><path class="cls-11" d="M170.61,78.14l1.65-.41"/><path class="cls-7" d="M113.15,156.72l6.41-4.23a16.06,16.06,0,0,1-2,5.58"/><path class="cls-13" d="M254.48,127.72h-9.41a6,6,0,0,0-5.87,4.65c-8.88,7.36-31.39,27.65-32.81,24.5-3.42-7.6-7.6-14.78-11-21.64l-12,8.93c2.77,12.85,8.29,25.76,17.36,32.45,6.3,4.64,37.44-29.23,45.78-36.36a1.63,1.63,0,0,0,.37-.47h7.63a6,6,0,1,0,0-12.06Z"/><path class="cls-14" d="M183.65,130.11v15.2"/><g class="cls-15"><path class="cls-16" d="M32.88,176.5c12,11.62,23.85,23.35,35.74,35.06q21.51,21.18,43,42.37,8.75,8.58,17.52,17.14a18,18,0,0,0,7.74,5,18.25,18.25,0,0,0,9.27,2.07,18.25,18.25,0,0,0,9.27-2.07,18,18,0,0,0,7.74-5c4.21-4.58,7.33-10.6,7-17l-.86-6.39a24,24,0,0,0-6.18-10.62c-12-11.62-23.85-23.35-35.73-35.06q-21.52-21.18-43-42.37Q75.68,151,66.9,142.48a18,18,0,0,0-7.74-5,18.15,18.15,0,0,0-9.27-2.08,18.15,18.15,0,0,0-9.27,2.08,18,18,0,0,0-7.74,5c-4.21,4.58-7.33,10.6-7,17l.86,6.39a24,24,0,0,0,6.18,10.62Z"/></g><circle class="cls-17" cx="246.11" cy="174.37" r="47.32"/><text class="cls-18" transform="translate(221.93 122.7)">4<tspan class="cls-19" x="19.39" y="0">0</tspan><tspan x="38.44" y="0">4</tspan></text></g></g></svg>