<svg xmlns="http://www.w3.org/2000/svg" xmlns:xlink="http://www.w3.org/1999/xlink" viewBox="0 0 304 304"><defs><style>.cls-1,.cls-4,.cls-5,.cls-9{fill:none;}.cls-2{fill:#3f81ff;}.cls-3{fill:#c94e23;}.cls-12,.cls-4,.cls-5,.cls-9{stroke:#000;}.cls-4,.cls-9{stroke-linecap:round;stroke-linejoin:round;}.cls-4{stroke-width:1.41px;}.cls-12,.cls-5{stroke-miterlimit:10;stroke-width:0.98px;}.cls-6{clip-path:url(#clip-path);}.cls-7{fill:#f9ecea;}.cls-8{fill:#e1e1e1;}.cls-9{stroke-width:1.86px;}.cls-10{fill:#9bbdc6;}.cls-11{fill:#adcfd8;}.cls-12{fill:#fdfefe;}.cls-13{fill:#f7e8e7;}.cls-14{fill:#f9f7f7;}</style><clipPath id="clip-path"><path class="cls-1" d="M158.64,59.43a28.22,28.22,0,0,0-56.43,0"/></clipPath></defs><g id="scene_12" data-name="scene 12"><circle class="cls-2" cx="236.12" cy="230.52" r="24.42"/><circle class="cls-3" cx="81.52" cy="125.54" r="49.12"/><polygon class="cls-4" points="144.65 153.52 111.8 151.78 122.75 143.81 139.92 144.56 144.65 153.52"/><polygon class="cls-4" points="120.26 143.57 110.8 118.18 96.12 117.69 109.56 150.78 120.26 143.57"/><path class="cls-4" d="M111.78,130.17l-4,1.53"/><path class="cls-4" d="M108.68,123.61l-4.31.39"/><path class="cls-4" d="M114.64,136.79l-4.61,3"/><circle class="cls-5" cx="128.45" cy="59.13" r="5.97"/><g class="cls-6"><path d="M158.09,65a28.22,28.22,0,1,0-55.88-5.55,28.93,28.93,0,0,0,.54,5.55Z"/><path class="cls-7" d="M98.94,59.07c4.27,1,8.24-2,11.52-4.37s6.26-5.18,7.56-9c1.62-4.76.11-10,2.61-14.53a14.34,14.34,0,0,1,11.76-7.4c1.19-.06,1.2-1.93,0-1.87a16.08,16.08,0,0,0-15.08,13.48c-.75,5.32,0,10.15-3.94,14.42a29.3,29.3,0,0,1-5.43,4.43c-2.48,1.64-5.38,3.84-8.51,3.08-1.16-.28-1.66,1.51-.49,1.8Z"/><path class="cls-7" d="M136.22,52.85C141.44,56.06,147,60,150.81,65h2.33a41.68,41.68,0,0,0-7.49-7.69,66.92,66.92,0,0,0-7.12-5.21c-2.89-1.82-6.56-3.57-7.71-7.06-1.25-3.82,2.32-6.85,4.73-9.28a76.19,76.19,0,0,1,8.7-7.55c.95-.71,0-2.33-.94-1.61a78.68,78.68,0,0,0-7.79,6.57c-2.17,2.08-4.85,4.41-6.15,7.18C126.71,46,132,50.24,136.22,52.85Z"/><path class="cls-7" d="M155.9,70.89a16.59,16.59,0,0,0-2-4.67h-2.23c.12.17.24.34.35.52"/><path class="cls-7" d="M167.1,78.23c1-.71,0-2.33-.95-1.62"/><path class="cls-7" d="M100.06,60.8c1.06-3.16,4.51-4.44,7.62-4.29,3.44.17,6.53,2.12,9.44,3.79A39.49,39.49,0,0,0,129.39,65h14.8c10-1.68,19.4-6.34,28.25-11.17,1.05-.57.11-2.18-.94-1.61-13.06,7.12-28,14.16-43.23,10.7a35.42,35.42,0,0,1-9.84-4c-2.9-1.65-5.88-3.52-9.22-4.09-4.42-.75-9.44,1-10.95,5.49C97.88,61.44,99.68,61.93,100.06,60.8Z"/><path class="cls-7" d="M122.91,65c.62-12.94-1.39-27.67,7.77-38.11.79-.9-.52-2.23-1.32-1.32-8.94,10.19-7.82,24.13-8.2,36.76q0,1.34-.12,2.67Z"/><path class="cls-7" d="M122.79,66.93c0-.24,0-.47,0-.71H121"/><path class="cls-7" d="M111.35,103.29c-.51,1.08,1.1,2,1.61.94"/><path class="cls-7" d="M127.26,65c9.65-10.77,18.42-22.22,25.41-35.18.56-1.05-1-2-1.62-.94a169.8,169.8,0,0,1-20.51,29.85c-1.81,2.13-3.68,4.21-5.57,6.27Z"/></g><rect class="cls-8" x="227.49" y="97.95" width="17.92" height="93.92" rx="8.96" transform="translate(31.04 -41.41) rotate(10.71)"/><polyline class="cls-9" points="171.15 268.66 207.34 189.57 244.62 271.03"/><rect class="cls-8" x="179.66" y="170.91" width="56.74" height="20.91" rx="10.45"/><line class="cls-4" x1="130.69" y1="36.73" x2="130.69" y2="0.67"/><line class="cls-4" x1="191.18" y1="161.29" x2="75.47" y2="159.8"/><rect class="cls-4" x="83.82" y="160.51" width="8.96" height="109.49"/><path d="M92.78,160.51c0,4-9,109.5-9,109.5V160.51Z"/><path d="M197.37,87.18a4.35,4.35,0,0,0-3-3,3.17,3.17,0,0,0,.72-.23l.14-.07a3.21,3.21,0,0,0,.08-5.77,3.9,3.9,0,0,0,.26-2.78,4,4,0,0,0-4-2.89,3.82,3.82,0,0,0-.14-.81,4,4,0,0,0-6.76-1.57,3.93,3.93,0,0,0-6.57,2.8,3.9,3.9,0,0,0-5.54,5l-.13,0a4,4,0,1,0,4.54,5.71,3.94,3.94,0,0,0,3.41.64,3.82,3.82,0,0,0,1.08-.5,5.27,5.27,0,0,0,4.23.5,5.24,5.24,0,0,0,5.92,2,5.09,5.09,0,0,0,.54-.22.89.89,0,0,0,.15,0h0l1.35,4.9a.93.93,0,0,0,.49,1.8A4.48,4.48,0,0,0,197.37,87.18Zm-12.6-8.26,0,0h-.09Z"/><path class="cls-10" d="M190.07,162.87a356.37,356.37,0,0,1-42.6,9.48c-5.65.89-8.78,7.94-7.39,13,.51,1.86,12.7,55.31,19,80.44,7.75-2.84,15.75-5,23.44-8.06-5.56-22.4-10.61-44.93-14.81-67.63q14.13-2.85,28-6.84C208.76,179.51,203.2,159.08,190.07,162.87Z"/><path d="M145.92,282.33l39.55-6.92L183.3,263l-17.65,3.09c-6.86,1.2-20.93,9.39-19.73,16.25Z"/><path d="M88.74,257.91l39.31,8.17,2.56-12.35-17.54-3.64c-6.82-1.42-22.91,1-24.33,7.82Z"/><path class="cls-11" d="M226.36,157.94c-4.91-4.91-11.43-4.22-16.58-.64,0,0,0,0-.06,0,2.09-1.67.37-.48-.45,0l-.12.08h0c-1.82.52-3.58,1.23-5.4,1.75-4.9,1.41-9.9,2.51-14.9,3.51-5.36,1.07-10.74,2-16.15,2.83l-3.49.51-2.18.29c-1.81.22-3.61.44-5.42.62-3.43.34-24.69-.78-29.1,9.8-9.08,21.82-15.63,44.61-23.45,66.91,8.15,2.63,15.73,4.82,23.44,7.6,7.25-20.68,14.14-40.43,21.39-61.11a61,61,0,0,0,9-.33c11.74-1.18,22.23-1.2,33.79-3.56,10.28-2.11,21.32-4.28,29.74-10.86C231.62,171.29,230.67,162.25,226.36,157.94Zm-17.17-.23.06,0-.34.25Z"/><path class="cls-12" d="M138.44,146.87q9.34.56,18.69.78c6.2.14,13,.85,19.13-.09,5.42-.83,8.33-5.66,11.34-9.77a125.7,125.7,0,0,0,9.46-15.24c3.18-6-5.95-11.37-9.14-5.34a125.31,125.31,0,0,1-7,11.74,62.18,62.18,0,0,1-4.22,5.83c-2.27,2.65-4,2.4-7.42,2.41-10.29,0-20.57-.29-30.84-.9-6.8-.41-6.77,10.17,0,10.58Z"/><path class="cls-12" d="M199.32,101.46l11.91,5c8.63,5.1,14.16,21,15,31l4.48,32.85-45.06-1.94,1.16-27.08c0-9.47-.25-17.8,5.64-35.46l.17-.19"/><path d="M174.7,91c-.69,0-1.33-.15-1.48-1s-.33-2.46.66-2.84c-.08-.38-.18-.75-.27-1.13-1.75.5-1.71,2.38-1.56,4a2.31,2.31,0,0,0,1.65,2.1,3.8,3.8,0,0,0,1.22.06C174.85,91.78,174.78,91.39,174.7,91Z"/><path d="M194.53,97.38l2.92,7.62c.42,1.11,2.23.63,1.8-.5l-2.92-7.61c-.42-1.11-2.23-.63-1.8.49Z"/><path d="M189.23,99.88l3.61,9.45c.43,1.11,2.23.62,1.8-.5L191,99.38c-.43-1.11-2.23-.63-1.8.5Z"/><path d="M181.82,100.3c-4.8-.8-5-5.35-5.65-9.49-.49-3-.52-6.77-1.58-9.65-.34-.92-.37.61-.57.67a5,5,0,0,1,1.25-.25,25.39,25.39,0,0,0,4.35-.87l10.11-2a6.92,6.92,0,0,0,1.58-.32c.8-.39-.69-.39-.73-.59.17,1,.39,1.92.59,2.88l3.56,17.4c.24,1.17,2,.67,1.8-.5l-4.18-20.41a.94.94,0,0,0-1.14-.65l-17.84,3.55a.94.94,0,0,0-.65,1.14c.86,5.29.82,11.93,3,16.84,3.08,6.86,10.27,3.59,15.58,2.12a.93.93,0,0,0-.5-1.8h0c-2.22.61-5.15,2.08-7.45,2.07a9.28,9.28,0,0,1-1.56-.13"/><path d="M177.5,88.25l.05.62c0,.8,1.3.8,1.24,0l0-.62c-.06-.79-1.3-.8-1.25,0Z"/><path class="cls-13" d="M174.76,90c-.34.8-1,2.5-1,2.57a2.52,2.52,0,0,0,.77.09"/><path d="M174,89.53c-.35.82-.7,1.66-1,2.51a1.1,1.1,0,0,0,.16,1.19,2.11,2.11,0,0,0,1.43.37.94.94,0,0,0,0-1.87l-.32,0c-.16,0-.12-.06,0,.05l.47.81c0,.37,0,.06.07-.12l.24-.64c.17-.44.39-1,.54-1.34a1,1,0,0,0-.34-1.28.94.94,0,0,0-1.28.34Z"/><path d="M197.19,103.92c-.52,1.55-1.83,3.57-3.57,3.88-1.58.27-.91,2.67.66,2.4,2.6-.47,4.54-3.3,5.31-5.62.5-1.53-1.9-2.18-2.4-.66Z"/><path d="M179.75,90.62c-1,.06-2.36.38-2.58-.92-.17-.94-.37-2.67.83-2.91,1-.2,2.44-.26,2.63,1s.36,2.7-1,2.89c-.74.1-.43,1.23.31,1.13,2.15-.29,2-2.43,1.89-4.09-.21-2.08-2.14-2.27-3.82-2.05-2.2.28-2.13,2.35-2,4.07a2.29,2.29,0,0,0,1.64,2.09,6.79,6.79,0,0,0,2.11,0C180.49,91.75,180.5,90.58,179.75,90.62Z"/><path d="M180.77,92.8l-.36.39c-.5.55.32,1.38.83.82l.36-.39c.5-.55-.32-1.38-.83-.82Z"/><path class="cls-13" d="M194.56,90.76a14.73,14.73,0,0,0-.76-3.53,1.29,1.29,0,0,0-1.53-.87,1.26,1.26,0,0,0-.87,1.53,11.86,11.86,0,0,1,.67,2.87A1.28,1.28,0,0,0,193.32,92a1.25,1.25,0,0,0,1.24-1.24Z"/><path d="M194.08,89.28c1.23-1.16-.45-3-1.79-2.07-.62.42,0,1.43.59,1,.12-.08.26-.17.39,0a.17.17,0,0,1,0,.27c-.55.52.28,1.35.82.83Z"/><path class="cls-4" d="M198.27,105.57a7.43,7.43,0,0,1-3.86,2.71,5.52,5.52,0,0,0-2.13.92,36.41,36.41,0,0,1,4.71,7.3,15.56,15.56,0,0,0,6.54-13.92,8.92,8.92,0,0,0-4.2-1.53C199,102.66,199.35,104.05,198.27,105.57Z"/><path class="cls-4" d="M190.49,110.65a27.81,27.81,0,0,0,1.63-4,6,6,0,0,0-3.15,3c-.44.94-1,2.94-.25,3.74A11,11,0,0,0,190.49,110.65Z"/><path class="cls-14" d="M191.59,83.69a.75.75,0,0,1-.75-.64,13.27,13.27,0,0,0-4-7.53,10.21,10.21,0,0,0-7.13-2.84,5.22,5.22,0,0,0-1.13.15.76.76,0,1,1-.35-1.48,7.46,7.46,0,0,1,1.43-.19,11.72,11.72,0,0,1,8.21,3.25,14.85,14.85,0,0,1,4.43,8.4.76.76,0,0,1-.63.87Z"/><ellipse class="cls-2" cx="193.69" cy="87.72" rx="5.35" ry="6.35"/><path class="cls-12" d="M140.35,152.77A152.1,152.1,0,0,0,162.71,159c6.75,1.3,15.57,3.7,22.4,2.16,6.4-1.44,11.88-8.12,16-12.89a95.28,95.28,0,0,0,12-17.55c4.24-8-7.93-15.16-12.18-7.12a79.6,79.6,0,0,1-9.24,14.07c-1.75,2.07-3.59,4.06-5.52,6a18.52,18.52,0,0,1-3,2.77c-3.41,2,.83.45-2.64.9-5.28.7-12.41-1.49-17.55-2.62a149.42,149.42,0,0,1-18.86-5.47c-8.56-3.06-12.25,10.56-3.75,13.61Z"/><path class="cls-12" d="M207,111.23h0a11.85,11.85,0,0,1,11.85,11.85v17.07a0,0,0,0,1,0,0h-23.7a0,0,0,0,1,0,0V123.08A11.85,11.85,0,0,1,207,111.23Z" transform="translate(100.76 -91.95) rotate(32.71)"/><line class="cls-4" x1="75.86" y1="159.68" x2="147.13" y2="127.7"/><rect class="cls-4" x="147.02" y="115.53" width="8.35" height="12.8"/><polyline class="cls-4" points="150.73 92.35 150.17 114.6 139.6 96.24"/><circle class="cls-4" cx="140.8" cy="98.93" r="6.77"/><path class="cls-4" d="M150.3,106.07a6.6,6.6,0,0,0,2.63-.55,6.77,6.77,0,0,0-2.4-13"/><polygon points="155.36 115.53 147.02 128.33 147.02 115.53 155.36 115.53"/></g></svg>