<svg xmlns="http://www.w3.org/2000/svg" viewBox="0 0 304 304"><defs><style>.cls-1,.cls-10,.cls-11,.cls-12,.cls-13,.cls-14,.cls-16,.cls-18,.cls-21,.cls-22,.cls-23,.cls-24,.cls-25,.cls-26,.cls-27,.cls-28,.cls-4,.cls-5,.cls-9{fill:none;}.cls-1,.cls-10,.cls-11,.cls-12,.cls-13,.cls-14,.cls-15,.cls-16,.cls-17,.cls-18,.cls-21,.cls-22,.cls-23,.cls-24,.cls-25,.cls-26,.cls-27,.cls-28,.cls-30,.cls-31,.cls-4,.cls-5,.cls-9{stroke:#000;}.cls-1,.cls-13,.cls-15,.cls-22,.cls-23,.cls-24,.cls-26,.cls-27,.cls-28,.cls-30,.cls-31,.cls-4{stroke-linecap:round;}.cls-1,.cls-13,.cls-22,.cls-23,.cls-24,.cls-26,.cls-27,.cls-28,.cls-30,.cls-31,.cls-4{stroke-linejoin:round;}.cls-1{stroke-width:0.8px;}.cls-2{fill:#adcfd8;}.cls-15,.cls-17,.cls-3,.cls-31{fill:#fff;}.cls-4,.cls-9{stroke-width:0.88px;}.cls-10,.cls-11,.cls-12,.cls-14,.cls-15,.cls-16,.cls-17,.cls-18,.cls-21,.cls-25,.cls-5,.cls-9{stroke-miterlimit:10;}.cls-5{stroke-width:0.85px;}.cls-6{fill:#e1e1e1;}.cls-7{fill:#3f81ff;}.cls-8{fill:#c94e23;}.cls-10{stroke-width:0.71px;}.cls-11{stroke-width:0.35px;}.cls-12,.cls-13{stroke-width:0.36px;}.cls-14{stroke-width:0.63px;}.cls-15{stroke-width:0.72px;}.cls-16,.cls-17{stroke-width:0.12px;}.cls-18{stroke-width:0.56px;}.cls-19{fill:#fcb7a9;}.cls-20{fill:#fdccbf;}.cls-21{stroke-width:0.54px;}.cls-22{stroke-width:0.51px;}.cls-23{stroke-width:0.41px;}.cls-24{stroke-width:0.66px;}.cls-25{stroke-width:0.49px;}.cls-26,.cls-31{stroke-width:0.7px;}.cls-27{stroke-width:0.63px;}.cls-28,.cls-30{stroke-width:0.6px;}.cls-29{fill:#f9ecea;}.cls-30{fill:#fcfcfc;}</style></defs><g id="scene_2" data-name="scene 2"><path d="M250.06,196.61h25.11a.67.67,0,0,0,0-1.33H250.06a.67.67,0,0,0,0,1.33Z"/><path d="M12,196.61H221.52a.67.67,0,0,0,0-1.33H12a.67.67,0,0,0,0,1.33Z"/><line class="cls-1" x1="92.77" y1="91.33" x2="92.77" y2="103.91"/><rect class="cls-2" x="101.33" y="60.33" width="100.1" height="169.52" rx="10.62"/><rect class="cls-3" x="100.52" y="72.93" width="94.71" height="149.7"/><rect class="cls-4" x="96.64" y="60.33" width="100.1" height="169.52" rx="10.62"/><line class="cls-5" x1="187.86" y1="214.54" x2="107.12" y2="214.54"/><rect x="126.51" y="60.35" width="39.56" height="2.59"/><line class="cls-1" x1="113.13" y1="141.37" x2="113.13" y2="190.76"/><line class="cls-4" x1="173.86" y1="194.45" x2="117.72" y2="194.45"/><rect class="cls-6" x="123" y="131.4" width="14.88" height="52.39"/><rect class="cls-7" x="141.36" y="109.01" width="14.88" height="74.57"/><rect class="cls-8" x="160.21" y="148.84" width="14.88" height="34.94"/><circle class="cls-9" cx="144.11" cy="221.98" r="5.55"/><path class="cls-10" d="M81.27,152.45l.59,17.85"/><path d="M70.51,136.63l-.09,4.59v.66l.29-.29a15.76,15.76,0,0,1-4.8-1.3c-.34-.16-.64.35-.3.5a16.5,16.5,0,0,0,5.1,1.38.3.3,0,0,0,.3-.29l.08-4.59v-.66a.29.29,0,0,0-.58,0Z"/><path class="cls-11" d="M79,125.64a.86.86,0,0,0,.28,0,1.07,1.07,0,0,0,.86-1.24,1.08,1.08,0,0,0-1.07-1.07.91.91,0,0,0-.53.25"/><path d="M69.06,126.88a1.93,1.93,0,0,0-1.47,1.46,1.53,1.53,0,0,0,.18,1,1.4,1.4,0,0,0,.79.62,2.41,2.41,0,0,0,1.25,0,.29.29,0,0,0,.2-.36.29.29,0,0,0-.36-.2,1.75,1.75,0,0,1-1,0l-.08,0-.1-.06-.06,0-.09-.08,0-.06-.06-.11a.8.8,0,0,1-.06-.2,1,1,0,0,1,.21-.85,1.46,1.46,0,0,1,.84-.53c.36-.08.21-.65-.16-.56Z"/><path d="M70.18,132.24l.33,4.39c0,.14.12.31.29.29.62-.08,1.24-.11,1.86-.2a5.32,5.32,0,0,0,1.76-.6c.33-.18,0-.69-.3-.51a4.43,4.43,0,0,1-1.62.54c-.56.07-1.13.11-1.7.18l.29.3-.32-4.39c0-.37-.61-.38-.59,0Z"/><path d="M73.37,132.51a21.3,21.3,0,0,0,.46,3.91l1.1,4.1.33,1.21a.3.3,0,0,0,.36.2c.53-.11,1-.24,1.57-.4A.3.3,0,0,0,77,141c-.51.16-1,.3-1.56.41l.36.2-.81-3-.55-2.05a7.36,7.36,0,0,1-.25-1c-.12-1-.19-2-.26-3,0-.37-.62-.38-.59,0Z"/><path d="M73.64,132l-3.12.3.28.21L69.5,127l-.18-.77c-.09-.37-.65-.21-.56.16l1.29,5.48.19.77a.29.29,0,0,0,.28.22l3.12-.3c.37,0,.37-.63,0-.59Z"/><path d="M73.15,132.48l2.53-.4A4.23,4.23,0,0,0,78.3,131a4.89,4.89,0,0,0,1.45-4.1c-.15-.73-.41-1.45-.62-2.16l-.75-2.64a.29.29,0,0,0-.57.15l1.31,4.6a4,4,0,0,1-.84,3.28,3.14,3.14,0,0,1-1.78,1.27l-.81.13-2.7.43c-.37.06-.21.62.16.56Z"/><path d="M77.21,124.89l.09.23a.31.31,0,0,0,0,.1.3.3,0,0,0,.08.08.23.23,0,0,0,.11,0,.17.17,0,0,0,.12,0l.07,0a.57.57,0,0,0,.11-.11l0-.07a.22.22,0,0,0,0-.16,2,2,0,0,0-.08-.22.31.31,0,0,0,0-.1.24.24,0,0,0-.09-.08.19.19,0,0,0-.1,0,.24.24,0,0,0-.12,0l-.07,0a.29.29,0,0,0-.11.11l0,.07a.38.38,0,0,0,0,.15Z"/><path d="M78.59,124.39c.23.32.49.63.75.93l.1.13s0-.06,0,0l0,0h0s0,0,0-.06c.11-.25.13-.34.06-.26s0,0,0,0l0,0-.09.06-.18.09a.3.3,0,0,0-.11.4.32.32,0,0,0,.41.11,1.67,1.67,0,0,0,.4-.25.33.33,0,0,0,0-.4,1.58,1.58,0,0,0-.12-.15l-.34-.41-.21-.26-.06-.07c.05.07,0,0,0,0l-.09-.14a.31.31,0,0,0-.41-.1.29.29,0,0,0-.1.4Z"/><path d="M77.13,126.74a.73.73,0,0,0,.17.18.83.83,0,0,0,.21.16,1.14,1.14,0,0,0,.34.19.33.33,0,0,0,.22,0,.3.3,0,0,0,.11-.41.3.3,0,0,0-.18-.13h0l.07,0a1.81,1.81,0,0,1-.33-.2l.06,0a.93.93,0,0,1-.18-.16l.05,0h0a.18.18,0,0,0-.08-.09.23.23,0,0,0-.1,0,.28.28,0,0,0-.22,0,.32.32,0,0,0-.14.18.33.33,0,0,0,0,.22Z"/><path d="M76,132.13l.78,8.75c0,.38.63.38.59,0l-.79-8.75c0-.37-.62-.38-.58,0Z"/><polygon points="73.83 134.64 73.67 132 70.55 132.3 73.83 134.64"/><path d="M66,140.36a102.79,102.79,0,0,1-.23-13.25.3.3,0,0,0-.59,0,102.79,102.79,0,0,0,.23,13.25c0,.37.62.38.59,0Z"/><path d="M78.45,121.47a22.57,22.57,0,0,1-3.19,2,19.89,19.89,0,0,1-3.58,1.22.29.29,0,0,0,.15.57A21.54,21.54,0,0,0,75.48,124,21.89,21.89,0,0,0,78.75,122c.3-.22,0-.73-.3-.5Z"/><path d="M78.06,122.12c0,.11,0,.22,0,.33s0,.11,0,0v.08c0,.06,0,.11,0,.16l.06.66a.3.3,0,0,0,.29.3.29.29,0,0,0,.29-.3,13.71,13.71,0,0,0-.16-1.42.3.3,0,0,0-.36-.21.31.31,0,0,0-.21.36Z"/><path d="M78.93,121.36a5.18,5.18,0,0,0-3.71-2.55,11.91,11.91,0,0,0-5.74.56,5.82,5.82,0,0,0-3.28,3.56,12.33,12.33,0,0,0-1,6.13c0,.38.62.38.58,0a11.77,11.77,0,0,1,.72-5.22c.62-1.68,1.42-3.22,3.18-3.9a11.34,11.34,0,0,1,4.9-.62,4.78,4.78,0,0,1,3.89,2.34.29.29,0,0,0,.5-.3Z"/><path d="M71.66,124.77a9,9,0,0,1-2.31,4,.29.29,0,0,0,.41.42,9.49,9.49,0,0,0,2.46-4.26.29.29,0,0,0-.56-.15Z"/><path d="M70.76,123.59a4.34,4.34,0,0,0,.76,1.42.31.31,0,0,0,.21.09.3.3,0,0,0,.2-.51h0l0,0a.18.18,0,0,1,0-.07,1.3,1.3,0,0,1-.1-.15,2.38,2.38,0,0,1-.18-.3,1.87,1.87,0,0,1-.15-.32c0,.07,0,0,0,0l0-.09-.06-.17a.3.3,0,0,0-.36-.2.28.28,0,0,0-.2.36Z"/><ellipse class="cls-12" cx="77.12" cy="125.02" rx="1.2" ry="1.31" transform="translate(-10.88 7.41) rotate(-5.14)"/><path class="cls-13" d="M74.94,120.39a3.44,3.44,0,0,1,2.43,1.79"/><path class="cls-14" d="M90.82,147.93l-2.66-4a.58.58,0,0,0-1,.15l-4.34,14.24a1.07,1.07,0,0,0,.2,1l2.77,3.33a.56.56,0,0,0,1-.19L91,148.91A1.14,1.14,0,0,0,90.82,147.93Z"/><path d="M63.43,140.53c-1.37,10.6-1.24,21.3-1,32a.3.3,0,0,0,.59,0c-.29-10.66-.42-21.36.95-32,0-.38-.54-.37-.59,0Z"/><path d="M78.27,138a71.8,71.8,0,0,1,4.26,11.7.29.29,0,0,0,.57-.15,74.29,74.29,0,0,0-4.32-11.85c-.16-.34-.66,0-.51.3Z"/><path d="M81,148.42a9.75,9.75,0,0,0-1.67-4,.29.29,0,0,0-.5.3l1.54,3.55a.3.3,0,0,0,.4.11.31.31,0,0,0,.11-.4l-1.55-3.56-.5.3a9.49,9.49,0,0,1,1.61,3.88c.06.38.62.22.56-.15Z"/><path d="M81.3,148c-.4.23-.8.46-1.21.68s-.64.45-.55.88a.9.9,0,0,0,.77.65,1.67,1.67,0,0,0,1.1-.41l-.36-.46a9,9,0,0,0-.74.77c-.22.26-.47.54-.38.9.16.58.94.44,1.33.23l-.29-.51a.78.78,0,0,0-.09,1.18,1.06,1.06,0,0,0,1.42,0,2.24,2.24,0,0,0,.47-2.92,2.33,2.33,0,0,0-1.4-1c-.37-.08-.53.49-.16.57a1.64,1.64,0,0,1,1.28,2,1.41,1.41,0,0,1-.78,1,.33.33,0,0,1-.42-.06c-.06-.08-.09-.21,0-.25a.29.29,0,0,0-.29-.51.76.76,0,0,1-.38.11l-.11,0s0,.07,0,0a5,5,0,0,1,1-1c.24-.22-.08-.66-.36-.46a1.42,1.42,0,0,1-.7.33c-.1,0-.32-.09-.3-.23s.16-.14.22-.18l.42-.24.85-.47c.33-.18,0-.69-.3-.51Z"/><path class="cls-15" d="M81.41,160.79a8.42,8.42,0,0,0,5.41-.16c.65-.24,1.35-.68,1.38-1.37a1.31,1.31,0,0,0-.54-1,3.64,3.64,0,0,0-1.1-.54,8.61,8.61,0,0,0-4.82-.52"/><path class="cls-3" d="M64.68,147.78c.87,2.88.61,7.59,2.44,10.15.24.34.76.3,1.16.36,4.88.72,9.41,2.38,14.29,3.1.29.05,2.33-4.22,2.33-4.22-4.46-1.53-13-4-13.15-4.21a1.24,1.24,0,0,1-.26-.54c-1-3.37-.66-4.31-1.64-7.68"/><path d="M64.4,147.85c.82,2.88.6,6,1.71,8.8a4.65,4.65,0,0,0,.8,1.49,2.78,2.78,0,0,0,1.67.49,57.36,57.36,0,0,1,5.68,1.22c1.88.47,3.74,1,5.63,1.36.5.1,1,.2,1.48.28a4.25,4.25,0,0,0,1.2.2.65.65,0,0,0,.41-.28,10.55,10.55,0,0,0,1.3-2.32c.3-.59.59-1.18.88-1.78a.31.31,0,0,0-.18-.43c-3.65-1.24-7.35-2.33-11-3.49-.54-.17-1.08-.33-1.61-.52-.76-.26-.75-1.15-.93-1.88-.49-2.1-.68-4.25-1.28-6.33-.1-.36-.67-.21-.56.15.65,2.3.83,4.68,1.44,7,.15.59.23,1.22.79,1.51a8.28,8.28,0,0,0,1.38.46c3.88,1.24,7.79,2.38,11.65,3.69l-.18-.43a36.14,36.14,0,0,1-1.92,3.71c-.33.52-.57.31-1.2.2-.87-.15-1.72-.33-2.58-.53-1.64-.37-3.26-.8-4.89-1.21s-3.29-.79-5-1.07c-.78-.13-1.53,0-2-.76a6.71,6.71,0,0,1-.77-1.9c-.71-2.54-.64-5.23-1.37-7.76-.1-.36-.67-.21-.56.15Z"/><path class="cls-16" d="M87,148.84l1.36,2.89"/><path class="cls-16" d="M86.26,152.34l1.53,2.27"/><path class="cls-17" d="M69.86,153.87l1.94-.94-.7,1.85"/><path class="cls-18" d="M58.38,251.21h.08L60,239.45l5.94.4-2,10.74h0c2.74,2.65,10.86,3.77,10.33,5.67H72.54l-13-.87a1.55,1.55,0,0,1-1.46-1.7Z"/><rect class="cls-18" x="57.6" y="256.31" width="16.06" height="1.91" transform="translate(113.85 518.37) rotate(-176.15)"/><path d="M66.86,252.26l-.2,2.91"/><path d="M67.51,252.26l-.2,2.91c0,.84-1.36.84-1.3,0l.2-2.91c.05-.83,1.35-.84,1.3,0Z"/><path d="M68.94,253.36l-.16,2.36"/><path d="M69.59,253.36l-.16,2.36c-.06.83-1.36.84-1.3,0l.16-2.36c0-.83,1.35-.84,1.3,0Z"/><rect class="cls-18" x="73.97" y="256.16" width="16.06" height="1.91" transform="translate(164.01 514.23) rotate(-180)"/><path class="cls-18" d="M73.44,239.92h6l-.52,10.51c2.52,2.75,11.48,3.29,11.05,5.3l-1.7.11h-13a1.54,1.54,0,0,1-1.57-1.6l.13-2.23Z"/><path d="M84.67,253.12v2.36"/><path d="M85.33,253.12v2.36a.66.66,0,0,1-1.31,0v-2.36a.66.66,0,0,1,1.31,0Z"/><path d="M82.22,252.3v2.92"/><path d="M82.87,252.3v2.92a.65.65,0,0,1-1.3,0V252.3a.65.65,0,0,1,1.3,0Z"/><polygon class="cls-19" points="81.94 170.14 73.1 169.84 71.25 242.36 81 242.51 81.94 170.14"/><polygon class="cls-20" points="75.62 169.86 62.47 169.73 57.55 241.91 68.36 242.36 75.62 169.86"/><line class="cls-21" x1="62.32" y1="169.82" x2="78.08" y2="169.82"/><rect class="cls-6" x="222.86" y="133.45" width="23.38" height="28.77"/><rect class="cls-22" x="228.23" y="244.06" width="4.37" height="2.82"/><rect class="cls-23" x="244.29" y="244.74" width="3.62" height="2.2" transform="translate(492.2 491.67) rotate(-180)"/><polygon points="248.09 244.78 244.46 246.95 244.38 244.61 248.09 244.78"/><polygon points="228.9 244.02 232.52 247.16 232.6 243.78 228.9 244.02"/><path class="cls-24" d="M215.09,255h19v-8h-6.8L224,248.55a12.35,12.35,0,0,1-4.37,1.22c-2.82.22-4.54,1.15-4.54,4.45Z"/><path class="cls-24" d="M219.86,249.83c.33.27.57,2.9.41,3.94s-.7.93-1.73.93h-3.43v1.55h19.28V254.7H220"/><path d="M222.77,251.53c.43,0,.49-.66.06-.66s-.49.66-.06.66Z"/><path d="M226.46,249.6c.43,0,.49-.67.06-.67s-.49.67-.06.67Z"/><path d="M224.4,250.72c.42,0,.49-.66.06-.66s-.49.66-.06.66Z"/><path d="M223,251l.58-1.81a.26.26,0,0,0-.15-.33.27.27,0,0,0-.34.15l-.52,1.83a.22.22,0,0,0,.13.29.22.22,0,0,0,.3-.13Z"/><path d="M224.6,250.29c.09-.31.17-.61.25-.92,0-.16.07-.32.11-.47s.08-.33.1-.49a.25.25,0,0,0-.2-.26.25.25,0,0,0-.29.15c0,.16-.06.32-.09.48l-.09.47c-.07.29-.14.58-.22.88a.23.23,0,0,0,.13.29.25.25,0,0,0,.3-.13Z"/><path d="M226.66,249.1a7.37,7.37,0,0,1,.37-1.81.27.27,0,1,0-.51-.19,9.94,9.94,0,0,0-.33,2c0,.3.45.35.47,0Z"/><path d="M234,250.12a5.18,5.18,0,0,0-2.23,1.7,3.81,3.81,0,0,0-1.21,2.47.36.36,0,0,0,.31.38.34.34,0,0,0,.38-.31,2.61,2.61,0,0,1,.3-1.13,5.53,5.53,0,0,1,.72-1,5,5,0,0,1,1.89-1.57c.29-.1.13-.6-.16-.52Z"/><line class="cls-25" x1="230.87" y1="242.2" x2="233.43" y2="242.2"/><path class="cls-24" d="M262.1,254.94h-19v-8h6.79l3.33,1.63a12.35,12.35,0,0,0,4.37,1.22c2.81.22,4.53,1.15,4.53,4.45Z"/><path class="cls-24" d="M257.33,249.82c-.32.27-.57,2.9-.41,3.94s.71.93,1.74.93h3.42v1.55H242.8v-1.55h14.39"/><path d="M254.36,251.52c.43,0,.49-.66.06-.66s-.49.66-.06.66Z"/><path d="M250.67,249.59c.43,0,.49-.67.07-.67s-.5.67-.07.67Z"/><path d="M252.74,250.71c.42,0,.49-.66.06-.66s-.49.66-.06.66Z"/><path d="M254.68,250.84l-.53-1.82a.26.26,0,0,0-.33-.2.27.27,0,0,0-.16.36l.59,1.8a.23.23,0,0,0,.27.12.24.24,0,0,0,.16-.26Z"/><path d="M253,250.16c-.08-.3-.16-.61-.23-.91l-.09-.45a3.73,3.73,0,0,0-.09-.46.26.26,0,0,0-.29-.21.26.26,0,0,0-.2.29c0,.15.06.3.09.45s.07.31.11.46c.07.31.16.61.25.91a.23.23,0,0,0,.26.18.23.23,0,0,0,.19-.26Z"/><path d="M251,249a9.24,9.24,0,0,0-.32-1.88.27.27,0,0,0-.34-.21.26.26,0,0,0-.16.37,7.36,7.36,0,0,1,.36,1.81.24.24,0,0,0,.27.19A.25.25,0,0,0,251,249Z"/><path d="M243.11,250.64a5,5,0,0,1,1.88,1.59,5.28,5.28,0,0,1,.7,1,2.79,2.79,0,0,1,.31,1.17c0,.39.67.36.68,0a3.8,3.8,0,0,0-1.18-2.52,5.09,5.09,0,0,0-2.2-1.7.27.27,0,0,0-.19.51Z"/><polygon class="cls-26" points="234.96 163.92 245.56 164.07 250.7 244.73 241.48 244.73 234.74 177.41 234.96 163.92"/><polygon class="cls-26" points="222.57 163.32 235.22 164.03 234.17 244.17 224.73 243.83 222.57 163.32"/><polyline class="cls-27" points="224.59 140.39 223.01 163.51 245.18 164.25 243.68 140.39"/><path class="cls-3" d="M245.71,165.11a1.77,1.77,0,0,0,0-3.54,1.77,1.77,0,0,0,0,3.54Z"/><path class="cls-28" d="M232.41,130.76a46.12,46.12,0,0,0-8.65,3.08,1.12,1.12,0,0,0-.45.35c-.14.19-6.12,4.51-6.15,5.17l5.62,6.59,1.57-1"/><path d="M236.09,130.77a4.24,4.24,0,0,1-1.91.85,1.46,1.46,0,0,1-.94-.16c-.29-.17-.54-.41-.83-.57-.49-.27-.92.47-.44.74s.63.48,1,.66a2.34,2.34,0,0,0,1.38.17,5.13,5.13,0,0,0,2.37-1.08.43.43,0,0,0-.61-.61Z"/><path d="M235.35,127c0,1.46.09,2.92.11,4.38a.28.28,0,0,0,.55,0c0-1.46-.09-2.92-.12-4.38a.27.27,0,0,0-.54,0Z"/><path d="M232.26,126.83c0,1.43.09,2.86.11,4.29a.28.28,0,0,0,.55,0c0-1.43-.09-2.86-.11-4.29a.28.28,0,0,0-.55,0Z"/><path d="M238.76,123.22a1.66,1.66,0,0,0,1.08-2.91,1.7,1.7,0,0,0-1.08-.39.27.27,0,0,0,0,.54,1.11,1.11,0,1,1,0,2.22.27.27,0,0,0,0,.54Z"/><path d="M238.34,122.9a3.7,3.7,0,0,1-3.68,3.65H233a4.77,4.77,0,0,1-1.84-.2,2.79,2.79,0,0,1-1.75-2.37,3.73,3.73,0,0,1,.07-.82l.45-3.68.36-3-.27.27,8.62.52-.28-.28v5.88a.28.28,0,0,0,.55,0V117a.28.28,0,0,0-.27-.27l-8.62-.52c-.16,0-.25.14-.27.28l-.84,6.86a3.31,3.31,0,0,0,2,3.46,5.09,5.09,0,0,0,2,.26h1.81a4.25,4.25,0,0,0,4.2-4.19A.28.28,0,0,0,238.34,122.9Z"/><path d="M232.12,120.69l0,.29a.23.23,0,0,0,0,.11.41.41,0,0,0,0,.09.21.21,0,0,0,.1.06.14.14,0,0,0,.11,0h.07a.21.21,0,0,0,.13-.07l0-.06a.33.33,0,0,0,0-.14l0-.29a.36.36,0,0,0,0-.11.15.15,0,0,0-.06-.09.21.21,0,0,0-.1-.06.2.2,0,0,0-.11,0h-.07a.35.35,0,0,0-.13.08l0,.06a.23.23,0,0,0,0,.14Z"/><rect x="226.52" y="115.92" width="13.29" height="2.75" rx="1.37" transform="translate(15.39 -26.58) rotate(6.75)"/><path d="M239.18,119.28a2.43,2.43,0,0,1-2.3,2h0a2.42,2.42,0,0,1-2.53-2.33v-.11a2.47,2.47,0,0,1,0-.61"/><path d="M231.67,117.1a2.43,2.43,0,0,1-2.3,2h0a2.43,2.43,0,0,1-2.53-2.33v-.11a2.43,2.43,0,0,1,.06-.61"/><path d="M239.15,117.55a1.48,1.48,0,0,1,1.42,1.23h0a1.49,1.49,0,0,1-1.21,1.72l-.07,0a1.63,1.63,0,0,1-.38,0"/><path d="M229.67,115.75a5.26,5.26,0,0,1,5.39-3.47h0a5.23,5.23,0,0,1,4.83,5.6l0,.23a5,5,0,0,1-.19,1"/><path d="M233.38,122.1a.29.29,0,0,0,0-.58.29.29,0,0,0,0,.58Z"/><path d="M232.29,122.36a.29.29,0,0,0,0-.58.29.29,0,0,0,0,.58Z"/><path d="M233.06,123.2a.29.29,0,0,0,0-.58.29.29,0,0,0,0,.58Z"/><polygon points="235.55 126.72 232.79 130.06 232.68 126.81 235.55 126.72"/><path d="M230,122.56a1,1,0,0,0,.22.18.75.75,0,0,0,.3.09,1.06,1.06,0,0,0,.46-.1.31.31,0,0,0,.17-.13.28.28,0,0,0-.1-.39.27.27,0,0,0-.23,0,1.12,1.12,0,0,1-.26.08h.07a.24.24,0,0,1-.12,0h.07a.19.19,0,0,1-.1,0l.07,0-.11-.06.05,0-.09-.08a.28.28,0,1,0-.4.4Z"/><path class="cls-29" d="M231.52,115.15a2.4,2.4,0,0,1,2.06-1.27.29.29,0,0,0,0-.57,3,3,0,0,0-2.55,1.55.3.3,0,0,0,.1.4.29.29,0,0,0,.39-.11Z"/><path d="M230.07,120.47l-.06.16,0-.08a3.55,3.55,0,0,1-.21.44.32.32,0,0,0,.12.43l.3.16a.43.43,0,0,0,.25,0,.35.35,0,0,0,.19-.15.29.29,0,0,0,0-.24.32.32,0,0,0-.15-.19l-.3-.15.11.43a5.06,5.06,0,0,0,.3-.67.29.29,0,0,0,0-.24.35.35,0,0,0-.19-.15.33.33,0,0,0-.24,0l-.07,0a.39.39,0,0,0-.08.14Z"/><path class="cls-27" d="M244.06,144.5s8-2.51,8-2.52c-.6-2.39-8.17-9.51-10.35-10.07a28.14,28.14,0,0,0-5.66-1.15"/><path class="cls-27" d="M228.07,166.32a13.19,13.19,0,0,1-4.14,5.56"/><path class="cls-27" d="M239.82,166.45a6.05,6.05,0,0,0,3.87,4"/><line class="cls-27" x1="226.17" y1="222.58" x2="226.17" y2="238.25"/><path class="cls-27" d="M243.46,163.34a32.2,32.2,0,0,0,5.09-9,2.19,2.19,0,0,0,0-1.65l-3.6-8.36"/><path class="cls-27" d="M247.89,139.69c3.35,4.18,4.38,8.36,6.18,12.63a19,19,0,0,1-8.27,13.81"/><path class="cls-30" d="M217.84,140.19c-4.5,1.42-12.41,3.56-12.85,3.63-.23,0-.15,0,.24,0l-.33,0a53.7,53.7,0,0,1-6.74-2.42v0c-1.66-2.51-4.83-3.53-7.82-4a3.93,3.93,0,0,0-1.49,0,1.48,1.48,0,0,0-1.1.91c-.24.75.34,1.49.89,2a27.4,27.4,0,0,0,5.18,4l0,0,5.29,3.35c1.09.69,6,2.52,7.33,2.31,1.8-.29,11.34-3.4,15.13-4.65Z"/><path class="cls-31" d="M243.48,163.39c-.48,2.5.69,4.9,2.25,6.9a3.42,3.42,0,0,0,.9.88,1.25,1.25,0,0,0,1.21.1c.58-.31.66-1.1.65-1.76a23.22,23.22,0,0,0-.8-5.44"/></g></svg>