<svg xmlns="http://www.w3.org/2000/svg" viewBox="0 0 304 304"><defs><style>.cls-1{opacity:0.83;}.cls-2{fill:#c94e23;}.cls-3{fill:#3f81ff;}.cls-10,.cls-15,.cls-16,.cls-17,.cls-18,.cls-19,.cls-20,.cls-4,.cls-5,.cls-6,.cls-7,.cls-9{fill:none;}.cls-15,.cls-18,.cls-19,.cls-20,.cls-4,.cls-5,.cls-6,.cls-9{stroke:#07080d;}.cls-10,.cls-11,.cls-16,.cls-4,.cls-5,.cls-6{stroke-miterlimit:10;}.cls-4{stroke-width:6.11px;}.cls-18,.cls-5{stroke-width:0.71px;}.cls-6,.cls-9{stroke-width:0.72px;}.cls-7{stroke:#0a0b0f;stroke-width:2.04px;}.cls-10,.cls-11,.cls-15,.cls-17,.cls-18,.cls-19,.cls-20,.cls-7,.cls-9{stroke-linecap:round;}.cls-15,.cls-17,.cls-18,.cls-19,.cls-20,.cls-7,.cls-9{stroke-linejoin:round;}.cls-8{fill:#07080d;}.cls-10,.cls-11,.cls-16,.cls-17{stroke:#000;}.cls-10{stroke-width:1.66px;}.cls-11{fill:#fcebeb;stroke-width:1.33px;}.cls-12{fill:#b57c64;}.cls-13{fill:#fdccbf;}.cls-14{fill:#f9ecea;}.cls-15{stroke-width:1.09px;}.cls-16{stroke-width:0.32px;}.cls-17{stroke-width:1.53px;}.cls-19{stroke-width:0.52px;}.cls-20{stroke-width:0.51px;}.cls-21{fill:#f2e2e2;}</style></defs><g id="scene_14" data-name="scene 14"><g class="cls-1"><path class="cls-2" d="M166.22,197.05l-40.09,24.06c-5.44,3.27-10.87,6.59-16.34,9.81-1.62,1-3.26,1.83-4.93,2.69-1.84.95-2.92.31,2.24-.91a23.75,23.75,0,0,0-2.4.91q-2.7,1-5.48,1.65c-.89.22-6.91,1.18-2.53.65s-2.29.12-3.18.16c-1.65.06-3.31.06-5,0a14.93,14.93,0,0,0-2.46-.16c1.32-.23,5.52.88,1.69.16a82.42,82.42,0,0,1-9.56-2.38c-5-1.59,4.58,2.32-.12-.11-1.84-.95-3.7-1.83-5.48-2.89-.73-.44-5.87-3.88-2.2-1.32s-1.25-1.15-1.93-1.77c-1.26-1.13-2.46-2.32-3.62-3.56-.58-.62-1.13-1.28-1.71-1.91-2-2.16,3.49,4.77,1.13,1.37a68.35,68.35,0,0,1-5.12-8.43c-2.54-5.09,1.87,5.13-.07-.15-.66-1.79-1.24-3.61-1.72-5.46-.4-1.58-.5-3.41-1.05-4.93,1.65,4.53.5,4.41.35,2.32,0-.82-.15-1.65-.2-2.48-.11-1.85-.13-3.72-.07-5.57,0-.83.14-1.65.14-2.47,0-2.79-.92,5.53-.21,1.68a71.36,71.36,0,0,1,2.28-9.58c.25-.75.63-1.55.82-2.33-1.43,5.6-1.56,3.75-.77,2.18.93-1.85,1.79-3.71,2.83-5.5.83-1.42,1.94-2.74,2.69-4.19-3,5.82-1.38,1.9.29,0q1.68-1.9,3.52-3.66c.62-.59,1.27-1.14,1.89-1.73,3.41-3.25-4.85,3.34-.88.71,5-3.34,10.25-6.42,15.45-9.54l45.66-27.42c10.55-6.33,15.08-21.67,8.06-32.26s-21-14.84-32.26-8.06l-43.31,26C57,126,51.21,129.1,45.87,132.82,29.26,144.36,17.08,160.89,12,180.56c-9.71,37.24,9.43,79.62,45.24,95,18.23,7.83,38.51,10.05,57.71,4.16,9.58-2.94,18-7.83,26.49-12.93l49-29.44C201,231,205.5,215.7,198.48,205.1s-21-14.84-32.26-8Z"/></g><path class="cls-3" d="M191.18,106.32a20.66,20.66,0,0,0-3.66,10.6,13.16,13.16,0,0,0,4.08,10.22,20.06,20.06,0,0,0,5.3,3.09c7.08,3.16,15,5.71,22.51,3.74,1.77-.46,3.69-1.39,4.16-3.16.28-1.05-1.11-1-1.64-1.93-1.68-3-7.8-4-10.77-5.74s-2.19-6.42-1.47-9.8a9.28,9.28,0,0,1,1.28-2.79c2.2-3.61,5.15-7.59,9.49-8.64,2.37-.57,9.73-.44,6.64-4.81-4.74-6.71-18.25-3.62-24.09-.87A28.81,28.81,0,0,0,191.18,106.32Z"/><path class="cls-4" d="M78.73,198.19l179.2,4a6.44,6.44,0,0,0,6.59-6.44V89.47A6.44,6.44,0,0,0,258.23,83L84.15,79a6.43,6.43,0,0,0-6.59,6.13L72.44,191.44A6.44,6.44,0,0,0,78.73,198.19Z"/><polygon class="cls-5" points="80.53 194.26 255.62 198.18 255.62 89.73 83.85 86.29 80.53 194.26"/><path class="cls-6" d="M166,191.43c-.06,3.29-.09,5.18-.09,5.18"/><path class="cls-6" d="M167.84,86.05c0,1.13-1.18,68.75-1.69,97.67"/><line class="cls-6" x1="94.86" y1="140.37" x2="263.56" y2="145.4"/><path class="cls-7" d="M75,198.52S20,232,20.43,233.46s257.49,12.92,258.93,12.92-15.8-43.55-15.8-43.55Z"/><path class="cls-8" d="M37.66,245.82c28,1.65,56,3.36,84,4.9q39,2.15,78.08,3.69,25.46,1,50.91,1.7c3.28.09,3.27-5,0-5.09q-43-1.23-86-3.19c-25.84-1.21-51.68-2.66-77.51-4.17l-49.43-2.93c-3.27-.19-3.26,4.89,0,5.09Z"/><path class="cls-9" d="M146.78,211.74a111.73,111.73,0,0,0-8.61,8.8"/><path class="cls-9" d="M138.11,211a108.48,108.48,0,0,0-8.61,8.81"/><path class="cls-9" d="M157.76,211a106,106,0,0,0-10,10.15"/><path class="cls-9" d="M167.13,211.89c-.39.54-4.94,7.09-7.44,10.6"/><path class="cls-10" d="M104.87,140.42c1.64-3.12,4.67-5.46,9.74-6.66l8.85-1.32a42.9,42.9,0,0,1,5.07.09L140.92,134c6,.7,10.77,4,12.82,8.4"/><path class="cls-11" d="M125.8,122.74l7.15-.64-.38,10.59a3.54,3.54,0,0,1-3.67,3.42h0a3.54,3.54,0,0,1-3.43-3.66Z"/><rect class="cls-12" x="119.57" y="90.8" width="23.25" height="12.65" transform="translate(3.35 -4.37) rotate(1.93)"/><path d="M126.66,121.78c-2.18-.47-4.67-.7-6.72-1.64a8.58,8.58,0,0,1-4.77-9.5c.9-4.53,1.93-9,2.9-13.56l1.14-5.36-1,.58,20.2,4.31,2.91.62-.58-1-2.1,9.85-1.4,6.56a33.38,33.38,0,0,1-.83,3.59,8.57,8.57,0,0,1-9.74,5.56c-1-.2-1.48,1.38-.44,1.58a10.25,10.25,0,0,0,9.57-3,11.47,11.47,0,0,0,2.68-5.69L141.38,101l.94-4.39a.84.84,0,0,0-.58-1l-20.19-4.31-2.91-.62a.83.83,0,0,0-1,.57l-3,13.85c-.36,1.71-.75,3.41-1.09,5.12a10.28,10.28,0,0,0,3.93,10.36c2.48,1.82,5.78,2.13,8.71,2.75C127.25,123.58,127.7,122,126.66,121.78Z"/><path d="M126.7,106.17l-.11,1h1.6l0-.79a.57.57,0,0,0-.07-.31.6.6,0,0,0-.16-.26.63.63,0,0,0-.26-.16.55.55,0,0,0-.31-.07.83.83,0,0,0-.56.23.81.81,0,0,0-.23.57l0,.79a.64.64,0,0,0,.07.31.56.56,0,0,0,.17.26.51.51,0,0,0,.25.16.57.57,0,0,0,.31.07.81.81,0,0,0,.57-.23l.12-.16a.84.84,0,0,0,.11-.41l.11-1a.67.67,0,0,0-.07-.31.62.62,0,0,0-.17-.26.6.6,0,0,0-.25-.16.67.67,0,0,0-.31-.07.86.86,0,0,0-.57.23l-.12.17a.8.8,0,0,0-.11.4Z"/><path d="M116.43,104.74l-.11,1.05h1.6l0-.8a.67.67,0,0,0-.07-.31.66.66,0,0,0-.42-.42.67.67,0,0,0-.31-.07.81.81,0,0,0-.56.23.87.87,0,0,0-.24.57l0,.8a.51.51,0,0,0,.07.3.63.63,0,0,0,.16.26.73.73,0,0,0,.26.17.67.67,0,0,0,.31.07.8.8,0,0,0,.56-.24l.13-.16a.83.83,0,0,0,.11-.4l.1-1.05a.56.56,0,0,0-.06-.31.62.62,0,0,0-.17-.25.56.56,0,0,0-.26-.17.6.6,0,0,0-.3-.07.8.8,0,0,0-.57.24l-.12.16a.71.71,0,0,0-.11.4Z"/><path d="M111.7,101.05a31.17,31.17,0,0,0,14.57-5.62L125.1,95a24.06,24.06,0,0,0,3.55,8.2c.84,1.3,1.74,2.56,2.65,3.81a5.89,5.89,0,0,0,2.55,2.32c1,.38,1.37-1.17.42-1.54-1.1-.44-1.84-1.92-2.49-2.84s-1.49-2.11-2.16-3.21a21.61,21.61,0,0,1-3-7.17.81.81,0,0,0-1.18-.48,29.65,29.65,0,0,1-13.76,5.4c-1,.12-1,1.72,0,1.6Z"/><path d="M121,107.67l-.52,0,.22,0-.47-.09a.84.84,0,0,0-.62.08.61.61,0,0,0-.22.2.59.59,0,0,0-.14.27.79.79,0,0,0,.08.62.82.82,0,0,0,.47.37,5.4,5.4,0,0,0,1.2.15.57.57,0,0,0,.31-.07.51.51,0,0,0,.25-.16.56.56,0,0,0,.17-.26.64.64,0,0,0,.07-.31.8.8,0,0,0-.24-.56.82.82,0,0,0-.56-.24Z"/><path d="M122.92,114.29c.21-.09.41-.17.61-.28l.4-.25a.7.7,0,0,0,.22-.2.57.57,0,0,0,.14-.28.55.55,0,0,0,0-.31.63.63,0,0,0-.1-.3.82.82,0,0,0-.47-.37l-.22,0a.8.8,0,0,0-.4.11,4.46,4.46,0,0,1-.77.43l.19-.08,0,0a.5.5,0,0,0-.27.14.63.63,0,0,0-.21.22.55.55,0,0,0-.09.3.58.58,0,0,0,0,.32l.08.19a.81.81,0,0,0,.29.29l.19.08a.75.75,0,0,0,.42,0Z"/><path d="M120.47,108.41c.26-.8.48-1.61.68-2.43a.81.81,0,0,0-.55-1,.83.83,0,0,0-1,.56c-.2.82-.43,1.62-.68,2.42a.81.81,0,0,0,.56,1,.82.82,0,0,0,1-.56Z"/><circle class="cls-13" cx="129.68" cy="112.65" r="1.1"/><path class="cls-14" d="M129.38,98.38a16.59,16.59,0,0,0,5.1,7.91,1,1,0,0,0,1.33,0,.94.94,0,0,0,0-1.33,14.8,14.8,0,0,1-4.61-7.08.94.94,0,0,0-1.82.5Z"/><polygon points="133 122.23 125.57 130.1 126.05 122.81 130.66 122.59 133 122.23"/><line class="cls-6" x1="95.08" y1="140.63" x2="93.42" y2="193.98"/><line class="cls-6" x1="96.77" y1="86.29" x2="95.08" y2="140.63"/><path class="cls-15" d="M93,93.51l-6-.09Z"/><path class="cls-15" d="M93,91.55l-6-.08Z"/><path class="cls-15" d="M93.21,89.56l-6-.08Z"/><circle class="cls-6" cx="168.32" cy="85.57" r="2.87"/><circle class="cls-6" cx="90.25" cy="187.9" r="2.51"/><rect class="cls-6" x="86.12" y="125.06" width="5.74" height="4.31" rx="0.47"/><polyline class="cls-9" points="86.44 125.36 89.17 127.37 91.86 125.52"/><line class="cls-9" x1="86.59" y1="129.36" x2="88.27" y2="126.85"/><line class="cls-9" x1="90.02" y1="126.97" x2="91.77" y2="129.03"/><circle class="cls-6" cx="89.65" cy="103.46" r="0.9"/><path class="cls-9" d="M89.62,104.85h.45A2.15,2.15,0,0,1,92.22,107v0a0,0,0,0,1,0,0H87.47a0,0,0,0,1,0,0v0a2.15,2.15,0,0,1,2.15-2.15Z"/><circle class="cls-13" cx="220.66" cy="112.34" r="2.6"/><path d="M206.74,118.26c1.42,4.44,5.34,8.67,10,9.61a11.27,11.27,0,0,0,4.9-.29,22.23,22.23,0,0,0,4.4-1.21,11,11,0,0,0,6.34-11,50.29,50.29,0,0,0-1.61-6.92l-2-8c-.24-1-1.79-.57-1.54.43,1.07,4.28,2.16,8.57,3.21,12.85a9.51,9.51,0,0,1-2.46,9.34c-2.17,2.1-5.09,2.56-7.93,3.14-5.27,1.09-10.31-3.75-11.81-8.46-.31-1-1.86-.56-1.54.43Z"/><path d="M207.06,118.29l.1,0-.56-.55c0,.16.09.33.14.49a.59.59,0,0,0,.14.27.63.63,0,0,0,.22.21.55.55,0,0,0,.3.09.58.58,0,0,0,.32,0l.19-.08a.81.81,0,0,0,.29-.29l.08-.19a.79.79,0,0,0,0-.43l-.12-.41v-.07a.5.5,0,0,0-.08-.2l-.12-.16-.17-.13-.19-.08h0l-.08,0a.69.69,0,0,0-.32,0,.62.62,0,0,0-.3.09.56.56,0,0,0-.22.21.72.72,0,0,0-.15.27l0,.21a.74.74,0,0,0,.11.41l.12.16a.84.84,0,0,0,.35.21Z"/><path d="M224.35,108.2l.12.86a.72.72,0,0,0,.15.27.56.56,0,0,0,.22.21.62.62,0,0,0,.3.09.7.7,0,0,0,.32,0,.89.89,0,0,0,.48-.37l.08-.19a1,1,0,0,0,0-.43l-.13-.86a.7.7,0,0,0-.14-.27.56.56,0,0,0-.23-.2.63.63,0,0,0-.3-.1.55.55,0,0,0-.31,0,.8.8,0,0,0-.48.36l-.08.19a.79.79,0,0,0,0,.43Z"/><path d="M227,112.93l-.14.06.2-.08a1.66,1.66,0,0,1-.42.12l.21,0a1.77,1.77,0,0,1-.46,0l.21,0a1.93,1.93,0,0,1-.41-.12l.19.08-.14-.06a.89.89,0,0,0-.62-.09.87.87,0,0,0-.47.37.84.84,0,0,0-.09.62.89.89,0,0,0,.37.48,2.57,2.57,0,0,0,2.38,0,.8.8,0,0,0,.29-1.09.84.84,0,0,0-.48-.37.89.89,0,0,0-.62.08Z"/><path class="cls-16" d="M227.73,98.53l.16-.21"/><path d="M228.7,106.31l3.17,3.16v-1.13L230,110.51a.8.8,0,0,0,1.13,1.13l1.85-2.17a.82.82,0,0,0,0-1.13l-3.17-3.16a.81.81,0,0,0-1.13,0,.8.8,0,0,0,0,1.13Z"/><path d="M208.83,122.43v10.43a4.6,4.6,0,0,0,.13,1.57,4.09,4.09,0,0,0,3.76,2.54,4.15,4.15,0,0,0,3.7-2.31,4.84,4.84,0,0,0,.23-2v-6a.8.8,0,0,0-1.6,0v4.66c0,.73,0,1.47,0,2.2a2.17,2.17,0,0,1-1.74,1.77c-1.06.26-2.74-.37-2.88-1.61a10.27,10.27,0,0,1,0-1.11V122.43a.8.8,0,0,0-1.6,0Z"/><path d="M208.83,122.16v13.52a7.42,7.42,0,0,0,.11,1.94,4.08,4.08,0,0,0,4.24,3,4.21,4.21,0,0,0,3.47-3.82c0-.76,0-1.53,0-2.29V126.9a.8.8,0,0,0-1.6,0v9.21a2.78,2.78,0,0,1-.94,2.41,2.28,2.28,0,0,1-3.68-1.7c0-.5,0-1,0-1.51V122.16a.8.8,0,0,0-1.6,0Z"/><path d="M226.53,95.38a8.85,8.85,0,0,1,1.05,5.21l.55-.56a42.61,42.61,0,0,1-14.64,1.56c-1-.1-1,1.5,0,1.6a43.88,43.88,0,0,0,15.07-1.62.79.79,0,0,0,.56-.56,10.68,10.68,0,0,0-1.21-6.43c-.44-.94-1.82-.13-1.38.8Z"/><path d="M228.15,94.69c-3.54-2.9-9-3.06-13.37-2.78-4.92.32-10.4,1.4-14.32,4.6-5.05,4.12-7.21,10.47-8.59,16.62-.37,1.69-.7,3.39-1,5.09a12.38,12.38,0,0,0-.48,3.1c.07.86,1.21,1.74,1.78,2.33a44.87,44.87,0,0,0,3.51,3.25,32.4,32.4,0,0,0,7.4,4.78c1.21.56,2.42,1.09,3.66,1.57a8.31,8.31,0,0,0,2.66.78c1,0,1-1.56,0-1.6a6.56,6.56,0,0,1-2-.63c-1.06-.4-2.1-.86-3.14-1.33a28.51,28.51,0,0,1-5.26-3,42.52,42.52,0,0,1-6.49-5.8c-.12-.13-.33-.48-.49-.56l-.14-.17q.1.61.12.24c.13-.14.08-.78.12-1,.21-1.44.54-2.88.82-4.31,1.17-5.79,2.65-12,6.78-16.46,3.34-3.62,8.06-5.08,12.83-5.7a33.1,33.1,0,0,1,8.14-.08c2.16.26,4.62.76,6.35,2.18.79.65,1.93-.48,1.13-1.13Z"/><path d="M216.68,134.37l6.68-1.3a.81.81,0,0,0,.55-1,17.3,17.3,0,0,1-.23-4.19.8.8,0,0,0-1.6,0,18.84,18.84,0,0,0,.29,4.62l.56-1-6.67,1.3a.81.81,0,0,0-.56,1,.82.82,0,0,0,1,.56Z"/><path d="M215.72,102.5a32.1,32.1,0,0,1-2.65,5.51,12.75,12.75,0,0,1-3.92,4.4c-.87.54-.07,1.92.81,1.38a14.32,14.32,0,0,0,4.41-4.84,34.74,34.74,0,0,0,2.9-6c.36-1-1.19-1.39-1.55-.43Z"/><path d="M203.48,113.65a3.61,3.61,0,0,0,1.87,3.57,3.61,3.61,0,1,0-1.84-3.78.82.82,0,0,0,.56,1,.81.81,0,0,0,1-.56,2.57,2.57,0,0,1,.08-.38c0-.07.05-.14.07-.22,0,.13,0,0,0,0a2.68,2.68,0,0,1,.18-.33l.05-.07a1.15,1.15,0,0,1,.14-.17l.27-.25c-.11.09,0,0,0,0l.16-.1.16-.09,0,0a2.13,2.13,0,0,1,.43-.13l.15,0c-.18,0,.06,0,.08,0a2.54,2.54,0,0,1,.39,0s.15,0,0,0l.22,0,.15,0,.15,0h0a2.68,2.68,0,0,1,.33.18l.15.1c-.12-.08,0,0,0,0a1.67,1.67,0,0,1,.23.23s.16.2.06.06a1.88,1.88,0,0,1,.12.18,2.11,2.11,0,0,1,.18.33c-.07-.16,0,.06,0,.08a.74.74,0,0,1,0,.14,1.74,1.74,0,0,1,0,.22s0,.15,0,0a3.49,3.49,0,0,1,0,.46s0,.23,0,.12,0,.14,0,.13a2.47,2.47,0,0,1-.11.36c.05-.12,0,0,0,0l-.1.2-.08.12-.08.13c.05-.07.05-.06,0,0a3.19,3.19,0,0,1-.26.26l-.11.09-.07,0-.29.17s-.18.07,0,0l-.21.07a2.33,2.33,0,0,1-.36.08h-.47c-.16,0-.06,0,0,0a3.31,3.31,0,0,1-.45-.12c-.23-.06.07,0,0,0l-.24-.12-.12-.08-.13-.08c.07.05.07,0,0,0l-.28-.29s-.12-.15,0,0l-.12-.19-.11-.19s-.1-.22,0-.07c-.05-.14-.09-.28-.13-.43a.77.77,0,0,1,0-.15c0,.18,0-.13,0-.16a3.55,3.55,0,0,1,0-.46.8.8,0,0,0-1.6,0Z"/><polygon points="208.92 130.58 216.7 126.92 209.19 123.71 208.92 130.58"/><path d="M206.72,115.73a.8.8,0,0,0,0-1.6.8.8,0,0,0,0,1.6Z"/><path d="M220.91,98.06c.08.13.15.27.22.41l.09.19c0,.09,0,.08,0,0s0,.07,0,.11a5.8,5.8,0,0,1,.24.84,1.55,1.55,0,0,0,0,.21c0,.06,0,0,0-.06s0,.08,0,.12a3.25,3.25,0,0,1,0,.44c0,.14,0,.29,0,.43s0,.17,0,.25,0,.08,0,0a.5.5,0,0,1,0,.12.83.83,0,0,0,.56,1,.82.82,0,0,0,1-.56,6.22,6.22,0,0,0-.78-4.26.82.82,0,0,0-1.1-.28.8.8,0,0,0-.28,1.09Z"/><path d="M198.33,107.11a58.64,58.64,0,0,0-2,9.89c-.37,3.24-.69,6.69.12,9.89a.8.8,0,0,0,1.54-.43c-.77-3-.42-6.38-.06-9.46a56.58,56.58,0,0,1,2-9.46.8.8,0,0,0-1.54-.43Z"/><path d="M224.14,104.23l-.85.09a.64.64,0,0,0-.31.07.82.82,0,0,0-.49.73l0,.22a.73.73,0,0,0,.2.35l.16.12a.74.74,0,0,0,.41.11l.85-.09a.6.6,0,0,0,.3-.07.56.56,0,0,0,.26-.17.62.62,0,0,0,.17-.25.67.67,0,0,0,.07-.31l0-.21a.82.82,0,0,0-.21-.36l-.16-.12a.8.8,0,0,0-.4-.11Z"/><path class="cls-17" d="M216.06,136.12c2.47.11,4.93.4,7.38.74,9,1.25,18.18,3.38,25.26,9"/><path class="cls-17" d="M179.36,142.17c1.82-1.86,17.88-4.23,23.23-5,1.87-.27,3.76-.54,5.64-.74"/><path d="M205.87,180.7c-.06,3.69-.22,7.37-.28,11.06a1.09,1.09,0,0,0,2.18,0c.06-3.69.22-7.37.28-11.06a1.09,1.09,0,0,0-2.18,0Z"/><path d="M214.28,181.46c-.06,3.62-.22,7.23-.28,10.84a1.09,1.09,0,0,0,2.18,0c.06-3.61.22-7.22.28-10.84a1.09,1.09,0,0,0-2.18,0Z"/><path d="M199.65,170.56l-.39,0c.19,0,0,0-.09,0l-.27-.07-.21-.08-.2-.1-.23-.15c-.07,0-.21-.17-.07-.05a2.1,2.1,0,0,1-.27-.24l-.18-.2c.16.16,0,0-.05-.07l-.17-.28s-.15-.34-.06-.11a3.27,3.27,0,0,1-.17-.53l0-.19c0,.13,0,.14,0,0s0-.2,0-.29,0-.2,0-.29h0s0-.09,0-.14a4.3,4.3,0,0,1,.18-.58c-.09.23,0,0,0-.07a3.21,3.21,0,0,1,.19-.31c0-.05.2-.25.05-.07l.18-.2c.07-.08.17-.14.23-.22l0,0,.15-.11a4.39,4.39,0,0,1,.47-.27c-.22.11.12,0,.17-.05l.27-.07s.34,0,.09,0l.39,0a1.09,1.09,0,0,0,0-2.18,4.65,4.65,0,0,0-4.31,3,4.55,4.55,0,0,0,1.31,5,4.65,4.65,0,0,0,3,1.13,1.09,1.09,0,0,0,0-2.18Z"/><path d="M223.64,165a5,5,0,0,1,.67,0c.3,0-.2-.05.08,0l.32.08s.36.13.12,0l.25.12.23.14a.56.56,0,0,1,.15.1c-.09-.08-.1-.08,0,0l.39.39c.08.09.08.09,0,0l.08.11.17.27.12.25c-.1-.22,0,0,0,.09s.07.24.1.36,0,.34,0,.1a4.28,4.28,0,0,1,0,.62c0,.28,0-.08,0,.13l-.06.27-.09.26c.08-.24,0,.11-.08.15s-.09.16-.14.24-.19.27,0,.07a3.77,3.77,0,0,1-.43.46c-.21.2.17-.1-.07.06l-.23.15-.33.17c.17-.08,0,0-.09,0l-.27.08c-.05,0-.44.07-.18,0a1.12,1.12,0,0,0-1.09,1.09,1.09,1.09,0,0,0,1.09,1.09,4.57,4.57,0,0,0,2.22-8.33,4.46,4.46,0,0,0-2.92-.78,1.09,1.09,0,1,0,0,2.18Z"/><path d="M199.69,171.38A11.12,11.12,0,0,0,209,182.23a32.43,32.43,0,0,0,4.73.13,31.14,31.14,0,0,0,4.63-.11c4.24-.62,7.86-4.64,7.45-9-.28-3.07-.75-6.13-1.12-9.19l-1.08-8.79a1.13,1.13,0,0,0-1.09-1.09l-19,1.15-2.73.16a1.11,1.11,0,0,0-1.09,1.09v14.84a1.09,1.09,0,0,0,2.18,0V156.54l-1.09,1.09,19-1.14,2.73-.17-1.09-1.09,2,16.12c.09.72.23,1.44.26,2.16a6.53,6.53,0,0,1-2.82,5.48c-2.61,1.82-6.48,1.19-9.5,1.19a9.64,9.64,0,0,1-5.78-1.61,8.92,8.92,0,0,1-3.72-7.19A1.09,1.09,0,0,0,199.69,171.38Z"/><path d="M218.39,164.15v.73a.55.55,0,0,0,.06.28.51.51,0,0,0,.15.23.57.57,0,0,0,.23.15.46.46,0,0,0,.28.06l.2,0a.8.8,0,0,0,.32-.19.75.75,0,0,0,.21-.51v-.73a.67.67,0,0,0-.06-.28.51.51,0,0,0-.15-.23.61.61,0,0,0-.24-.15.45.45,0,0,0-.28-.06l-.19,0a.8.8,0,0,0-.32.19.75.75,0,0,0-.21.51Z"/><path d="M209.59,164.89v.73a.55.55,0,0,0,.07.28.67.67,0,0,0,.38.38.46.46,0,0,0,.28.06l.19,0a.74.74,0,0,0,.32-.19.76.76,0,0,0,.22-.51v-.73a.55.55,0,0,0-.07-.28.67.67,0,0,0-.38-.38.46.46,0,0,0-.28-.06l-.19,0a.74.74,0,0,0-.32.19.76.76,0,0,0-.22.51Z"/><rect x="197.01" y="153.9" width="33.55" height="6.93" rx="3.47" transform="translate(444.59 288.52) rotate(173.25)"/><path d="M197.28,161.85a6.14,6.14,0,0,0,5.81,5.16h0a6.14,6.14,0,0,0,6.39-5.88v-.28a5.74,5.74,0,0,0-.13-1.56"/><path d="M216.21,157.91a6.15,6.15,0,0,0,5.81,5.15h0a6.15,6.15,0,0,0,6.4-5.88v-.28a6.54,6.54,0,0,0-.13-1.55"/><path d="M198.67,158a3.76,3.76,0,0,0-3.59,3.12h0a3.76,3.76,0,0,0,3.07,4.34l.17,0a3.38,3.38,0,0,0,1,0"/><path d="M222.61,153.47A13.26,13.26,0,0,0,209,144.72h0a13.2,13.2,0,0,0-12.2,14.13l.05.59a13.18,13.18,0,0,0,.48,2.62"/><path d="M206.63,168.21a.73.73,0,0,0,0-1.45.73.73,0,0,0,0,1.45Z"/><path d="M209.32,169.12a.73.73,0,0,0,0-1.46.73.73,0,0,0,0,1.46Z"/><path d="M207.18,171a.73.73,0,0,0,0-1.45.73.73,0,0,0,0,1.45Z"/><path d="M221.27,166.54a.73.73,0,0,0,0-1.45.73.73,0,0,0,0,1.45Z"/><path d="M224,167.45a.73.73,0,0,0,0-1.45.73.73,0,0,0,0,1.45Z"/><path d="M221.82,169.37a.73.73,0,0,0,0-1.45.73.73,0,0,0,0,1.45Z"/><polygon points="207.75 182.11 214.72 190.53 215.01 182.33 207.75 182.11"/><path d="M215.91,169.08l-.1.08.15-.11a1.8,1.8,0,0,1-.35.21l.17-.07a1.38,1.38,0,0,1-.27.08l.19,0h-.29l.2,0a2.13,2.13,0,0,1-.43-.13l.17.07-.34-.16a.79.79,0,0,0-.56-.08.75.75,0,0,0-.44.34.74.74,0,0,0,.26,1,2.87,2.87,0,0,0,1.3.4,2.16,2.16,0,0,0,1.37-.59.74.74,0,0,0,.21-.51.78.78,0,0,0-.21-.52.76.76,0,0,0-.52-.21.8.8,0,0,0-.51.21Z"/><path class="cls-14" d="M219.18,151.23a7.49,7.49,0,0,0-6.44-3.92.73.73,0,0,0,0,1.45,6,6,0,0,1,5.18,3.21.73.73,0,0,0,1.26-.74Z"/><path class="cls-17" d="M182,201c.44-1.29.9-2.58,1.37-3.86a5.46,5.46,0,0,1,1.21-2.17,5.38,5.38,0,0,1,2.7-1.09,168,168,0,0,1,17.87-2.64"/><path class="cls-17" d="M215.68,191.37l4.87.21c7,.31,14.34.68,20.57,4a3,3,0,0,1,1.16.9,3.23,3.23,0,0,1,.4,1.69l.24,5"/><path d="M204.86,192.93a12.82,12.82,0,0,0,6,2.74,5.91,5.91,0,0,0,3.4-.4c.93-.43,1.66-1.19,2.56-1.68a1.09,1.09,0,0,0-1.1-1.88c-.75.41-1.38,1-2.11,1.44a3.46,3.46,0,0,1-2.36.39,10.39,10.39,0,0,1-4.82-2.15,1.13,1.13,0,0,0-1.54,0,1.09,1.09,0,0,0,0,1.54Z"/><circle class="cls-5" cx="175.05" cy="188.08" r="3.68"/><circle class="cls-5" cx="165.82" cy="187.59" r="3.68"/><circle class="cls-5" cx="156.51" cy="187.04" r="3.68"/><line class="cls-18" x1="156.6" y1="185.36" x2="156.6" y2="188.92"/><line class="cls-18" x1="155.1" y1="187.16" x2="158.28" y2="187.16"/><rect class="cls-18" x="173.59" y="186.8" width="2.27" height="1.94"/><polygon class="cls-18" points="176.13 188.11 176.91 188.44 176.91 187.37 176.13 187.63 176.13 188.11"/><path class="cls-18" d="M164.46,185.9a4.16,4.16,0,0,1,2.42,0,2.9,2.9,0,0,1,1.07.6,1.61,1.61,0,0,1,.52,1.09.6.6,0,0,1-.34.61.75.75,0,0,1-.46-.07c-.34-.14-.74-.38-.69-.74,0-.16.12-.33,0-.46a.41.41,0,0,0-.29-.13,7.71,7.71,0,0,0-1.92,0,.27.27,0,0,0-.15,0c-.1.09,0,.26,0,.39a.54.54,0,0,1-.26.45,1.54,1.54,0,0,1-.51.17c-.76.15-.81-.26-.6-.93A1.64,1.64,0,0,1,164.46,185.9Z"/><path class="cls-19" d="M89,113.75a2.93,2.93,0,0,1-1-1.5,1.88,1.88,0,0,1-.07-.91,1.15,1.15,0,0,1,.46-.76.46.46,0,0,1,.52,0,.52.52,0,0,1,.14.32c.06.27.07.61-.17.73s-.26.06-.3.17,0,.15,0,.23a5.79,5.79,0,0,0,.79,1.18.23.23,0,0,0,.1.07c.09,0,.16-.09.24-.15a.37.37,0,0,1,.38,0,1.15,1.15,0,0,1,.32.25c.4.41.17.61-.33.75A1.19,1.19,0,0,1,89,113.75Z"/><polygon class="cls-9" points="87.15 133.07 86.34 133.07 86.34 134.64 87.24 134.64 88.54 135.99 88.63 132.04 87.15 133.07"/><path class="cls-9" d="M89.38,133.37a.86.86,0,0,1,.36.72.83.83,0,0,1-.42.68"/><path class="cls-9" d="M89.8,132.58a.73.73,0,0,1,.48.25,1.62,1.62,0,0,1,.45,1.29,1.64,1.64,0,0,1-.73,1.16"/><path class="cls-9" d="M90.71,131.88a2.39,2.39,0,0,1,1,2.33,3.31,3.31,0,0,1-1.19,1.94"/><path class="cls-9" d="M88.57,122h3.27a.8.8,0,0,0,.79-.79v-1.48a.8.8,0,0,0-.79-.79H88.57a.79.79,0,0,0-.79.79v1.48A.79.79,0,0,0,88.57,122Z"/><polygon class="cls-9" points="91.59 123.02 90.92 121.94 91.84 121.94 91.59 123.02"/><path class="cls-9" d="M87.78,120.55H86.59a.78.78,0,0,1-.78-.78v-1.48a.79.79,0,0,1,.78-.79h3.28a.79.79,0,0,1,.78.79v.51"/><polyline class="cls-9" points="87.51 120.55 86.59 120.55 86.84 121.63 87.51 120.55"/><rect class="cls-9" x="86.93" y="109.43" width="4.35" height="5.79"/><rect class="cls-9" x="91.3" y="110.17" width="0.96" height="1.28"/><rect class="cls-9" x="91.3" y="112.41" width="0.96" height="1.28"/><path class="cls-9" d="M90.14,188.3a2.4,2.4,0,0,0,.64-.91.86.86,0,0,0-.27-1c-.31-.21-.84,0-.82.38"/><circle class="cls-8" cx="90.17" cy="189.26" r="0.25"/><circle class="cls-20" cx="83.95" cy="187.83" r="0.85"/><polyline class="cls-20" points="83.43 186.26 83.67 185.45 84.42 185.45 84.59 186.14 85.37 185.93 85.97 186.5 85.43 187.25 86.27 187.51 86.18 188.35 85.55 188.41 85.88 189.22 85.22 189.82 84.56 189.34 84.39 190.21 83.52 190.18 83.31 189.28 82.65 189.7 82.08 189.07 82.47 188.62 81.75 188.29 81.81 187.31 82.56 187.16 82.17 186.35 82.65 185.81 83.37 186.2"/><line class="cls-7" x1="87.44" y1="220.54" x2="236.76" y2="229.15"/><line class="cls-7" x1="98.44" y1="206.66" x2="230.54" y2="211.92"/><line class="cls-9" x1="119.95" y1="212.67" x2="178.82" y2="215.9"/><line class="cls-9" x1="118.64" y1="217.49" x2="177.5" y2="220.72"/><path d="M215.65,165.23a15.83,15.83,0,0,0,.62,1.75l.48-1.17-.81.31a.84.84,0,0,0-.48.37.8.8,0,0,0,.29,1.09.77.77,0,0,0,.61.08l.81-.31a.82.82,0,0,0,.36-.21.63.63,0,0,0,.16-.26.6.6,0,0,0,.07-.3.84.84,0,0,0-.11-.41v0l.08.19a13.67,13.67,0,0,1-.53-1.52.8.8,0,0,0-1-.56.8.8,0,0,0-.56,1Z"/><path class="cls-10" d="M126,184.86a68.93,68.93,0,0,1,10.74.86,4.46,4.46,0,0,1,2.22.84,4.7,4.7,0,0,1,1.18,2.45l1.71,6.69"/><path class="cls-10" d="M97.76,193.42a17.83,17.83,0,0,1,10.13-7.33,37.72,37.72,0,0,1,11.24-1.54"/><circle class="cls-13" cx="129.04" cy="166.92" r="1.8"/><path d="M117,164.7a4.2,4.2,0,0,0-3.37,3.15,4.25,4.25,0,0,0,1.84,4.48,4.09,4.09,0,0,0,2.64.61,1,1,0,0,0,1-1c0-.48-.44-1.06-1-1a4.1,4.1,0,0,1-.61,0c-.08,0-.25,0-.07,0l-.33-.07-.24-.08c-.25-.08.16.09-.07,0a4.94,4.94,0,0,1-.49-.3c.18.13,0,0-.06-.06l-.2-.2s-.2-.27-.08-.09l-.14-.21c0-.09-.09-.18-.14-.26s0-.05,0,0l-.06-.16c0-.08-.05-.16-.08-.25a1.3,1.3,0,0,0,0-.21c0,.12,0-.19,0-.22a2.26,2.26,0,0,1,0-.26c0-.08,0-.25,0-.07a3.18,3.18,0,0,1,.08-.33c0-.08.05-.16.07-.24s-.07.11,0-.07.19-.34.3-.49c-.13.17,0,0,.06-.06a2.5,2.5,0,0,1,.23-.23s.24-.17.06,0l.21-.14.26-.14,0,0a.52.52,0,0,1,.16-.06,3,3,0,0,1,.59-.14,1,1,0,0,0,.7-1.22,1,1,0,0,0-1.22-.7Z"/><path class="cls-21" d="M119.49,178.05l-.14,8.66"/><path d="M118.5,178.05l-.14,8.66a1,1,0,0,0,2,0l.14-8.66a1,1,0,0,0-2,0Z"/><path class="cls-21" d="M125.69,178.61l-.17,10.75"/><path d="M124.7,178.61l-.17,10.75a1,1,0,0,0,2,0l.17-10.75a1,1,0,0,0-2,0Z"/><line class="cls-21" x1="117.71" y1="166.11" x2="119.52" y2="178.65"/><path d="M116.76,166.37l1.58,11,.22,1.56a1,1,0,0,0,1.91-.53l-1.58-11-.22-1.55a1,1,0,0,0-1.22-.7,1,1,0,0,0-.69,1.22Z"/><path d="M124.59,179.42l6-.47c2.49-.2,4.83-.37,6.67-2.33a8.41,8.41,0,0,0,2-7.26l-1.18-6.8-1-5.79c-.21-1.26-2.13-.73-1.91.52l1.95,11.24c.34,1.95.59,3.68-.46,5.55a5.21,5.21,0,0,1-3.93,2.72c-.59.07-1.2.09-1.79.14l-6.4.5c-1.27.09-1.28,2.08,0,2Z"/><path d="M132.9,163.06l.18.63a.46.46,0,0,0,.12.23.52.52,0,0,0,.19.17.53.53,0,0,0,.24.08.62.62,0,0,0,.27,0l.16-.07a.76.76,0,0,0,.23-.24l.07-.16a.69.69,0,0,0,0-.35l-.18-.63a.51.51,0,0,0-.12-.23.52.52,0,0,0-.19-.17.53.53,0,0,0-.24-.08.5.5,0,0,0-.27,0l-.15.06a.69.69,0,0,0-.24.24l-.07.16a.69.69,0,0,0,0,.35Z"/><path d="M118,186.89a10,10,0,0,0,3.14,2.75,6.76,6.76,0,0,0,4.52,1,1.32,1.32,0,0,0,.92-1.62,1.35,1.35,0,0,0-1.62-.93c-.16,0-.07.06,0,0a.6.6,0,0,1-.23,0h-.23c.26,0,0,0,0,0a7.79,7.79,0,0,1-.8-.2l-.41-.14-.18-.07c-.19-.08,0,0,0,0s-.3-.14-.35-.17l-.38-.2a5.59,5.59,0,0,1-.66-.41l-.16-.11-.06,0-.09-.07-.15-.13c-.19-.17-.38-.34-.56-.53s-.2-.21-.29-.32-.34-.41-.13-.14a1.45,1.45,0,0,0-.79-.61,1.32,1.32,0,0,0-1.5,1.94Z"/><path d="M134.1,169a2.91,2.91,0,0,0,.73.46.75.75,0,0,0,.51.07.43.43,0,0,0,.22-.12.42.42,0,0,0,.17-.18l.07-.16a.69.69,0,0,0,0-.35l-.07-.16a.59.59,0,0,0-.23-.24,2.43,2.43,0,0,1-.52-.3l.13.1L135,168a.45.45,0,0,0-.22-.13.44.44,0,0,0-.25-.06.48.48,0,0,0-.26.06.46.46,0,0,0-.21.13l-.1.14a.63.63,0,0,0-.09.33l0,.18a.66.66,0,0,0,.17.29Z"/><path d="M138.63,165.9a3.41,3.41,0,0,0,.71-.48.57.57,0,0,0,.12-.18.38.38,0,0,0,0-.21.41.41,0,0,0,0-.22.57.57,0,0,0-.12-.18.6.6,0,0,0-.4-.17l-.15,0a.64.64,0,0,0-.25.15l-.08.07.11-.09a3.36,3.36,0,0,1-.51.32.46.46,0,0,0-.16.15.49.49,0,0,0-.1.19.55.55,0,0,0,0,.22.52.52,0,0,0,.07.21.6.6,0,0,0,.34.26l.15,0a.57.57,0,0,0,.28-.08Z"/><path d="M139.5,164.43c-.41-.42-.81-.86-1.19-1.31a.54.54,0,0,0-.4-.17.54.54,0,0,0-.39.17.56.56,0,0,0-.17.39.66.66,0,0,0,.17.4c.38.45.77.89,1.18,1.32a.58.58,0,0,0,.8,0,.58.58,0,0,0,0-.8Z"/><path d="M130.61,156a7.54,7.54,0,0,0,6,.74,1.13,1.13,0,0,0-.6-2.18c-.22.06-.44.12-.66.16,0,0-.36.06-.18,0s-.15,0-.19,0a5,5,0,0,1-.67,0,1.91,1.91,0,0,1-.59,0h.05l-.17,0-.25-.05c-.22,0-.44-.11-.65-.18l-.24-.09-.16-.06c.14.06.16.06,0,0l-.6-.31a1.15,1.15,0,0,0-1.55.4,1.17,1.17,0,0,0,.41,1.55Z"/><path d="M132.34,159.87h-.11l-.23,0-.06,0a1.17,1.17,0,0,0-.26.1l-.1.05a1.84,1.84,0,0,0-.22.17l-.08.09a1.12,1.12,0,0,0-.16.22l-.06.13a.5.5,0,0,0-.05.13.46.46,0,0,0,0,.26.55.55,0,0,0,.07.25.63.63,0,0,0,.17.19.61.61,0,0,0,.23.11l.17,0a.67.67,0,0,0,.34-.09l.13-.11a.66.66,0,0,0,.17-.29l0-.05-.06.15a.46.46,0,0,1,.08-.13l-.11.13.12-.11-.13.1a.46.46,0,0,1,.15-.09l-.16.07a.55.55,0,0,1,.17-.05l-.17,0h.15a.4.4,0,0,0,.26-.06.46.46,0,0,0,.21-.13.49.49,0,0,0,.14-.21.47.47,0,0,0,.05-.26l0-.18a.72.72,0,0,0-.17-.29l-.13-.1a.69.69,0,0,0-.34-.09Z"/><path d="M130.48,165.56a.67.67,0,0,0,0-1.33.67.67,0,0,0,0,1.33Z"/><path d="M128,166.15a.66.66,0,0,0,0-1.32.66.66,0,0,0,0,1.32Z"/><path d="M129.49,168a.66.66,0,0,0,0-1.32.66.66,0,0,0,0,1.32Z"/><path d="M138.25,156.15a5.1,5.1,0,0,0,.31-.52c1.55-3.2-1.05-6.81-3.73-8.41-3.41-2-8.08-1.87-11.7-.5a10.22,10.22,0,0,0-5.72,5.69c-4.51.2-8.86,3.05-9.16,7.89a7.05,7.05,0,0,0,.68,3.48,7.91,7.91,0,0,0,1,11.71,6,6,0,0,0,0,2.38,4.19,4.19,0,0,0,.69,2.88c1.58,2.33,4.71,4.25,7.53,3.22a.67.67,0,0,0,.44-.63l.08-.06c.62-.65.45-1.73.47-2.55,0-1.2,0-2.4,0-3.61,0-.05,0-.11,0-.16a1.31,1.31,0,0,0-.36-1.42,1.32,1.32,0,0,0,.17-1.48,11.15,11.15,0,0,0,4.71-9.2,5.93,5.93,0,0,0,2.86-3.79l.11-.15a6.48,6.48,0,0,0,4.15-3.82c1.87.59,4.06,1,5.73.37.12.57.23,1.14.37,1.7v2a.67.67,0,0,0,1.12.47.79.79,0,0,0,.6-.31A4.07,4.07,0,0,0,138.25,156.15Zm-7.59-7.64-.15,0s0,0,0-.06ZM114.51,179.1l-.08.09a3,3,0,0,1,.11-.32ZM117.1,172a6.09,6.09,0,0,1-1.93-1.78,5.12,5.12,0,0,1-.6-3.2,17.43,17.43,0,0,0,2.79-.34,1.32,1.32,0,0,0,.45-.16q0,.48,0,1v2.45a1.52,1.52,0,0,0,.09.49A4.71,4.71,0,0,1,117.1,172Zm3.78-5.7h0c0,.06,0,.13,0,.19A1.09,1.09,0,0,1,120.88,166.29Z"/><path d="M126.64,178.49c-.87.67-.86,3.69-.8,3.9a1.35,1.35,0,0,0,1.62.92,8.77,8.77,0,0,0,3.9-1.8,4.15,4.15,0,0,0,2.08-3.17C133.49,176.88,127.84,177.55,126.64,178.49Zm.23,2.15,0,.06v0h0S126.87,180.67,126.87,180.64Z"/></g></svg>