<svg xmlns="http://www.w3.org/2000/svg" viewBox="0 0 304 304"><defs><style>.cls-1,.cls-10,.cls-11,.cls-12,.cls-13,.cls-14,.cls-15,.cls-17,.cls-2,.cls-5,.cls-6{fill:none;}.cls-1,.cls-10,.cls-11,.cls-12,.cls-13,.cls-14,.cls-15,.cls-16,.cls-17,.cls-2{stroke:#000;}.cls-1,.cls-10,.cls-11,.cls-12,.cls-13,.cls-14,.cls-15,.cls-16,.cls-17,.cls-6{stroke-linecap:round;stroke-linejoin:round;}.cls-1,.cls-16{stroke-width:1.93px;}.cls-2,.cls-5{stroke-miterlimit:10;}.cls-2{stroke-width:1.27px;}.cls-3{fill:#fff;}.cls-4{fill:#3f81ff;}.cls-5,.cls-6{stroke:#07080d;stroke-width:0.99px;}.cls-7{fill:#adcfd8;}.cls-8{fill:#1a72ff;}.cls-9{fill:#c94e23;}.cls-10,.cls-11{stroke-width:0.64px;}.cls-11{stroke-dasharray:7.44 7.44;}.cls-12{stroke-width:0.91px;}.cls-13{stroke-width:1.04px;}.cls-14{stroke-width:0.86px;}.cls-16{fill:#fdfefe;}.cls-17{stroke-width:1.04px;}</style></defs><g id="scene3"><path class="cls-1" d="M83.73,219.44c1.57-11.2,7-36.45,7.44-47.78"/><path class="cls-1" d="M127.57,202.29c-4.63-9.31-8.45-14.86-11-23.91"/><path class="cls-1" d="M105.92,154.76a12.61,12.61,0,0,0-9.5,1.25,12.43,12.43,0,0,0-5.66,7.36l-.44,3.28A12.32,12.32,0,0,0,92,172.87h0q1.05,2.24,2,4.5l-1.24-3c5,12,8.31,24.67,13.27,36.71,2.14,5.17,4,11.19,9.12,14.2a15.79,15.79,0,0,0,9.67,1.75l4.21-.38c6.21-.57,12.43-1.14,18.67-1.46a145,145,0,0,1,22.25.32c2.95.3,6.7-1.6,8.71-3.61a12.32,12.32,0,0,0,0-17.43l-2.49-1.93a12.18,12.18,0,0,0-6.22-1.68,152.08,152.08,0,0,0-25-.17c-4,.25-8,.59-12,.95l-5.6.52"/><path class="cls-1" d="M164,200.09c-2.88-15.61-7.34-36.43-10.57-42.22-3.33-6-11.14-7-16.87-9.73l-.24-.06-30.4,6.44"/><path d="M140.83,99.05a10.35,10.35,0,0,0-6.84,2.37,13.05,13.05,0,0,0-11.5-7.57c-7.35-.13-13.49,6.1-13.69,13.91a13.79,13.79,0,0,0,10.21,14,32.23,32.23,0,0,0,2.53,4.56,11.35,11.35,0,0,0,3.46,3.54c1.59.92,2.78,1.18,2.87-.88.06-1.23,0-2.48,0-3.73a21.69,21.69,0,0,0,11.67-5.4q.41,0,.81.06a10.44,10.44,0,1,0,.46-20.88Z"/><path class="cls-2" d="M126.58,123.88c.08.4.84,7,1,7.42,1.52,4.88,6.44,9.58,11.29,8.89l3.72-.42a9.89,9.89,0,0,0,8.4-11.19l-2.18-15.32"/><path d="M143.47,121.49l0,.86a.6.6,0,0,0,.07.32.61.61,0,0,0,.18.27.64.64,0,0,0,.27.18.71.71,0,0,0,.32.07l.23,0a.86.86,0,0,0,.62-.81l0-.86a.71.71,0,0,0-.07-.32.83.83,0,0,0-.45-.45.71.71,0,0,0-.32-.07l-.23,0a.78.78,0,0,0-.37.22.83.83,0,0,0-.25.59Z"/><path d="M145.8,128.68a1.8,1.8,0,0,1-.4.1l.22,0a1.55,1.55,0,0,1-.43,0l.22,0a1.66,1.66,0,0,1-.42-.12l.2.09a1.51,1.51,0,0,1-.28-.15.86.86,0,0,0-.65-.09.92.92,0,0,0-.5.39.87.87,0,0,0-.09.65.94.94,0,0,0,.39.51,2.77,2.77,0,0,0,.55.26,2.63,2.63,0,0,0,.61.12,1.82,1.82,0,0,0,.52,0,1.89,1.89,0,0,0,.51-.12.51.51,0,0,0,.28-.15.56.56,0,0,0,.22-.24.86.86,0,0,0,.09-.65.89.89,0,0,0-.39-.5.78.78,0,0,0-.65-.08Z"/><path d="M149,113.06l.18-.2"/><path d="M149.23,120.07l3,3.73.43.53v-1.19l-2,1.94a.86.86,0,0,0,0,1.19.87.87,0,0,0,1.2,0l2-1.94a.86.86,0,0,0,0-1.19l-3-3.73-.43-.53a.84.84,0,0,0-1.19,0,.86.86,0,0,0,0,1.19Z"/><path class="cls-2" d="M129.06,135.16l-1.79,13.39a3.34,3.34,0,0,0,2.62,3.39h0a3.35,3.35,0,0,0,3.44-2.57l1.3-9.68"/><path d="M142.69,101.74a8.26,8.26,0,0,1,4.24,3.81"/><path class="cls-3" d="M142.57,102.15a7.81,7.81,0,0,1,4,3.61c.26.49,1,.06.74-.43a8.71,8.71,0,0,0-4.5-4,.44.44,0,0,0-.53.3.44.44,0,0,0,.3.52Z"/><circle class="cls-3" cx="128.42" cy="124.72" r="2.01"/><path d="M129.59,124.77a.92.92,0,0,0,0,.16s0-.18,0-.06a2,2,0,0,1-.06.26l0,.06c0,.08,0,.06,0-.06s-.05.1,0,.1-.18.23-.17.26.12-.13,0,0l-.1.09a.46.46,0,0,1-.07.07c-.14.13,0,0,0,0a1.42,1.42,0,0,0-.23.14l-.09,0c.12,0,.14-.06.05,0l-.07,0-.26.07c-.12,0,.22,0,0,0h-.28s-.2,0,0,0h-.05l-.16,0-.15,0s.19.1,0,0l-.23-.13s-.16-.08,0,0,0,0,0,0-.17-.22-.22-.23.1.14,0,0l-.08-.13-.05-.09c-.09-.16.06.18,0,0a2.41,2.41,0,0,1-.08-.25s0-.08,0-.11c0,.13,0,.15,0,.06a.22.22,0,0,0,0-.08c0-.09,0-.17,0-.25s0,.19,0,0a.52.52,0,0,1,0-.11s.1-.23.08-.25l0,.1a.41.41,0,0,1,.05-.09s0-.1.07-.14a.76.76,0,0,0,.08-.11c0-.1-.14.15,0,0l.18-.19s.1-.13,0,0l0,0,.08-.06.09,0,.1,0c.08,0,.06,0-.06,0,0,0,.2-.07.25-.08l.11,0c.18,0-.16,0,0,0h.42q-.19,0-.06,0h.06a1.27,1.27,0,0,0,.3.09s-.17-.09,0,0l.16.09.09.06,0,0,.07.07a1.62,1.62,0,0,1,.19.18c.12.14-.1-.16,0,0a1,1,0,0,1,.08.14s.07.14.08.14-.08-.2,0,0a1.73,1.73,0,0,0,.08.31s0-.22,0-.06a1.77,1.77,0,0,1,0,.23.85.85,0,0,0,.84.84.87.87,0,0,0,.85-.84,2.89,2.89,0,0,0-1.87-2.72,2.86,2.86,0,0,0-3.12.77,2.85,2.85,0,0,0,2.67,4.7,2.87,2.87,0,0,0,2.32-2.75.85.85,0,1,0-1.69,0Z"/><path d="M135.35,139.64l-7.25,4.08.72-10a23.7,23.7,0,0,0,3.27,3.81A29.7,29.7,0,0,0,135.35,139.64Z"/><path class="cls-4" d="M124.21,143.66h11.86a0,0,0,0,1,0,0v6.15a5.93,5.93,0,0,1-5.93,5.93h0a5.93,5.93,0,0,1-5.93-5.93v-6.15A0,0,0,0,1,124.21,143.66Z" transform="translate(13.82 -10.97) rotate(5.1)"/><path class="cls-1" d="M154.42,174c.82,5.64,4.21,20.49,5,26.13"/><circle class="cls-5" cx="87.69" cy="68.93" r="2.8"/><path class="cls-6" d="M87.6,73.27H89A6.72,6.72,0,0,1,95.72,80v0a0,0,0,0,1,0,0H80.88a0,0,0,0,1,0,0v0A6.72,6.72,0,0,1,87.6,73.27Z"/><rect class="cls-7" x="185.77" y="184.53" width="93.29" height="91.53" rx="45.77"/><rect x="127.11" y="212.96" width="58.76" height="7.45" rx="3.72"/><path class="cls-8" d="M251.24,218.38H62.56a6.17,6.17,0,1,0,0,12.33H251.24a6.17,6.17,0,0,0,0-12.33Z"/><path class="cls-9" d="M76.64,87.84a26.62,26.62,0,1,1-27.55,45.55,26.87,26.87,0,0,1-9-36.55c7.63-12.62,24-16.23,36.55-9,2,1.17,4-1.89,2-3.07C67.45,78.35,53.46,79,43.43,87.4a30.27,30.27,0,1,0,47.84,33.66A30.55,30.55,0,0,0,78.62,84.77C76.61,83.56,74.62,86.62,76.64,87.84Z"/><path class="cls-10" d="M196,147.57c1.15-.54,2.31-1.1,3.45-1.7"/><path class="cls-11" d="M205.76,142a29.37,29.37,0,0,0,7.9-8.24c4-6.47,4.3-15.71-1-21.1-4.19-4.24-10.87-5.2-16.68-3.84a10.49,10.49,0,0,0-5.17,2.53,4.89,4.89,0,0,0-1.23,5.33,5.86,5.86,0,0,0,2.26,2.32c3.82,2.45,8.72,2.76,13.11,1.64a22.88,22.88,0,0,0,14.72-12.45"/><path class="cls-10" d="M220.91,104.69a20.09,20.09,0,0,0,.67-3.78"/><rect class="cls-12" x="215.78" y="82.98" width="20.15" height="15.26" rx="0.69" transform="translate(40.92 -67.57) rotate(18.68)"/><polyline class="cls-12" points="218.54 80.8 226.11 92.09 237.2 86.39"/><line class="cls-12" x1="214.09" y1="93.96" x2="223.48" y2="89.05"/><line class="cls-12" x1="229.59" y1="90.69" x2="233.18" y2="100.42"/><path class="cls-13" d="M185,58.44H161.78a11.57,11.57,0,0,0-8.65,19.27L152.77,86l5.62-4.92a11.49,11.49,0,0,0,3.39.51H185a11.59,11.59,0,1,0,0-23.17Z"/><line class="cls-14" x1="181.09" y1="65.79" x2="163.7" y2="65.79"/><line class="cls-14" x1="174.83" y1="70.21" x2="164.11" y2="70.21"/><line class="cls-14" x1="183.29" y1="75.72" x2="171.89" y2="75.72"/><rect class="cls-14" x="35.07" y="130.65" width="20.23" height="20.23"/><path class="cls-15" d="M45.18,136.89h1.29m-1.29,2.58h1.29M40,142.05h6.44M40,144.63h6.44m2.58-7.74H52a1,1,0,0,1,1,1v8.06A1.93,1.93,0,0,1,51,147.85m-1.94-11v9a2,2,0,0,0,.57,1.37,1.93,1.93,0,0,0,1.37.56m-1.94-11v-2.25a1,1,0,0,0-1-1H38.41a1,1,0,0,0-1,1v11.28a1.91,1.91,0,0,0,1.93,1.93H51m-11-11H42.6v2.58H40Z"/><path class="cls-14" d="M58.57,153.74A35.92,35.92,0,0,0,82.7,162.1"/><path class="cls-14" d="M57.88,182.41a36,36,0,0,0,25.51-1"/><path class="cls-16" d="M170.62,219.58H244a3.09,3.09,0,0,0,2.91-2.76L255.47,164a3.27,3.27,0,0,0-2.9-4H179.2a3.09,3.09,0,0,0-2.91,2.76l-8.58,52.84A3.27,3.27,0,0,0,170.62,219.58Z"/><circle class="cls-17" cx="207.42" cy="184.76" r="4.33"/><circle class="cls-17" cx="216.47" cy="189.76" r="5.33"/><circle class="cls-17" cx="213.42" cy="178.43" r="2"/><circle class="cls-17" cx="237.75" cy="137.43" r="9"/><path d="M234.23,135.61l.91,3.37a6.63,6.63,0,0,0,1,2.61,1.69,1.69,0,0,0,2.17.37,7.07,7.07,0,0,0,1.91-2.29l8.19-11.85c.55-.79-.74-1.54-1.28-.76l-6.77,9.8-1.66,2.4a9.13,9.13,0,0,1-.82,1.14c-.24.25-.42.43-.67.14a2.85,2.85,0,0,1-.35-1l-.38-1.43-.77-2.85a.75.75,0,0,0-1.44.39Z"/><path class="cls-15" d="M44.73,164.1V166m8.64-1.85V166m-11.72,11.1V167.8A1.84,1.84,0,0,1,43.5,166H54.6a1.89,1.89,0,0,1,1.31.54,1.85,1.85,0,0,1,.54,1.31v9.25m-14.8,0a1.89,1.89,0,0,0,.54,1.31,1.85,1.85,0,0,0,1.31.54H54.6a1.84,1.84,0,0,0,1.85-1.85m-14.8,0v-6.16A1.84,1.84,0,0,1,43.5,169H54.6a1.85,1.85,0,0,1,1.31.54,1.81,1.81,0,0,1,.54,1.31v6.16m-7.4-4.93h0Zm0,1.85h0Zm0,1.85h0ZM47.2,174h0Zm0,1.85h0ZM45.35,174h0Zm0,1.85h0Zm5.55-3.7h0Zm0,1.85h0Zm0,1.85h0Zm1.85-3.7h0Zm0,1.85h0Z"/></g></svg>