<svg xmlns="http://www.w3.org/2000/svg" viewBox="0 0 254.3 233.62"><defs><style>.cls-1{opacity:0.83;}.cls-2{fill:#c94e23;}</style></defs><g id="Layer_40" data-name="Layer 40"><g class="cls-1"><path class="cls-2" d="M190.26,121.92,150.18,146c-5.45,3.27-10.87,6.58-16.35,9.81-1.61.95-3.26,1.83-4.93,2.69-1.84.94-2.92.3,2.24-.92a24.75,24.75,0,0,0-2.4.92c-1.8.64-3.63,1.18-5.48,1.64-.88.22-6.91,1.18-2.53.66s-2.28.12-3.18.15c-1.65.07-3.3.06-5,0a15.17,15.17,0,0,0-2.47-.17c1.32-.22,5.52.89,1.69.17a82.29,82.29,0,0,1-9.55-2.39c-5-1.58,4.57,2.33-.13-.1-1.84-1-3.69-1.83-5.47-2.9-.74-.44-5.87-3.88-2.21-1.31s-1.24-1.16-1.92-1.77c-1.26-1.14-2.47-2.32-3.63-3.56-.58-.63-1.13-1.28-1.7-1.91-2-2.17,3.48,4.76,1.12,1.37a69,69,0,0,1-5.12-8.44c-2.54-5.08,1.87,5.14-.07-.14-.66-1.79-1.23-3.62-1.71-5.47-.41-1.57-.5-3.4-1.06-4.92,1.65,4.53.5,4.4.36,2.32-.06-.83-.16-1.65-.21-2.48q-.17-2.79-.06-5.58c0-.82.13-1.65.14-2.47,0-2.79-.93,5.54-.22,1.68a71.62,71.62,0,0,1,2.29-9.57c.24-.76.62-1.56.82-2.33-1.44,5.6-1.57,3.75-.78,2.18.93-1.85,1.79-3.71,2.83-5.51.83-1.41,1.94-2.74,2.7-4.18-3,5.82-1.39,1.89.29,0,1.11-1.26,2.29-2.49,3.51-3.65.62-.59,1.27-1.14,1.89-1.73,3.41-3.25-4.85,3.33-.88.71,5.06-3.34,10.25-6.43,15.45-9.55L154.17,61.8c10.54-6.33,15.08-21.66,8.05-32.26s-21-14.84-32.26-8l-43.31,26C81.07,50.84,75.26,54,69.91,57.69,53.31,69.23,41.13,85.77,36,105.44c-9.72,37.24,9.42,79.61,45.24,95,18.22,7.83,38.51,10.05,57.7,4.16,9.58-2.94,18-7.83,26.49-12.92l49-29.44c10.54-6.33,15.08-21.67,8.05-32.26s-21-14.84-32.26-8.06Z"/></g></g></svg>