<svg xmlns="http://www.w3.org/2000/svg" viewBox="0 0 304 304"><defs><style>.cls-1{fill:#3f81ff;}.cls-2{fill:#e1e1e1;}</style></defs><g id="shape_3" data-name="shape 3"><polygon class="cls-1" points="114.63 255.55 244.91 255.55 244.91 125.27 114.63 255.55"/><path d="M92.87,179.45V130.39c0-6.67-.05-13.34,0-20,0-2,.12-3.93.24-5.89.15-2.17,1.31-2.79-.38,2.51a26.93,26.93,0,0,0,.47-2.66c.4-2,.9-3.9,1.48-5.81.28-.92,2.67-6.86.78-2.63s1.12-2.13,1.58-3c.83-1.52,1.73-3,2.69-4.45a15.12,15.12,0,0,0,1.48-2.13c-.51,1.31-3.78,4.49-1.06,1.43a86.82,86.82,0,0,1,7.3-7.31c4.15-3.68-4.56,2.86.17,0,1.85-1.14,3.64-2.34,5.56-3.36.79-.43,6.66-3.19,2.37-1.27s1.71-.5,2.63-.78q2.55-.78,5.16-1.34c.88-.19,1.77-.32,2.65-.5,3-.62-6.18.56-1.85.27a71.65,71.65,0,0,1,10.36,0c5.94.46-5.63-1.09.16,0,2,.38,3.93.85,5.85,1.41,1.64.49,3.33,1.39,5,1.72-5-1-4.23-1.94-2.28-.94.77.4,1.57.76,2.34,1.16,1.73.9,3.42,1.89,5.06,3,.72.47,1.41,1,2.14,1.46,2.51,1.51-4.48-3.82-1.4-1.1a75.28,75.28,0,0,1,7.39,7.23c.54.62,1.06,1.4,1.65,2-4.27-4.31-2.53-3.43-1.54-1.87,1.16,1.83,2.37,3.61,3.42,5.52.83,1.51,1.42,3.22,2.31,4.68-3.59-5.88-1-2.27-.15.26.53,1.7,1,3.41,1.39,5.14.2.88.34,1.76.53,2.64,1.09,4.82-.38-6.17-.16-1.18.27,6.35.24,12.69.24,19v55.9c0,12.91,11.35,25.27,24.68,24.68s24.67-10.84,24.67-24.68v-53c0-6.83.32-13.75-.14-20.57C214.25,84.7,206,64.81,191,49.57,162.77,20.71,114.31,15,81.12,39,64.23,51.12,51.27,68.17,46.21,88.62c-2.53,10.21-2.69,20.43-2.69,30.81v60c0,12.91,11.35,25.27,24.68,24.68s24.67-10.84,24.67-24.68Z"/><path class="cls-2" d="M82,190.4V159.53c0-12.44-.83-24.69,7.5-35.11,11.85-14.82,34.33-17.25,48.95-5a34.6,34.6,0,0,1,12.39,24.47c.2,3.77.06,7.58.06,11.35V190.4c0,6.35,9.87,6.36,9.87,0V155.19c0-4.44.23-9-.21-13.39a44.63,44.63,0,0,0-13.23-27.68c-14.82-14.35-38.72-16.69-55.79-4.86a45,45,0,0,0-17.76,24.66c-1.63,5.77-1.65,11.6-1.65,17.53v39c0,6.35,9.87,6.36,9.87,0Z"/><path d="M140.87,229.83a31.17,31.17,0,1,0,39,7.49c-9.56-11.6-25.84-14.26-39-7.49-2.12,1.09-.25,4.28,1.86,3.19,13.32-6.86,30-2.31,37.25,11.06a27.48,27.48,0,1,1-48.31,26.19c-7.21-13.45-2-29.76,11.06-37.25C144.8,231.84,142.94,228.64,140.87,229.83Z"/></g></svg>