<svg xmlns="http://www.w3.org/2000/svg" viewBox="0 0 304 304"><defs><style>.cls-1{fill:#fdccbf;}.cls-2{fill:#adcfd8;}.cls-3{fill:#3f81ff;}</style></defs><g id="shape_1" data-name="shape 1"><circle class="cls-1" cx="255.42" cy="110.11" r="29.15"/><path d="M239.64,120.66c-38.59-10.68-76.89-20.78-117.1-13.3-37.47,7-64.3,33.35-87.57,61.59-5.82,7.08-9.84,14.29-9.84,23.78,0,8.24,3.66,18.09,9.84,23.77,12.36,11.35,35.61,14.5,47.55,0,9.31-11.3,18.71-22.68,29.9-32.19,1.09-.93,2.32-1.77,3.36-2.76-5.86,5.58-2.62,2.09-.66.77a87.86,87.86,0,0,1,9.36-5.54c1-.52,2-1,3.07-1.49l-3.77,1.59c.65-1,4.39-1.57,5.44-1.9a93.47,93.47,0,0,1,11.2-2.78c.76-.15,1.52-.28,2.28-.4q3.87-.62-3.19.42c1.35.23,3.24-.31,4.63-.4,3.87-.27,7.76-.34,11.65-.25s7.74.47,11.62.74c6.28.43-4.77-.88-.42-.11,2,.37,4.12.66,6.17,1,16.45,3,32.51,7.82,48.6,12.27,16.94,4.69,37.33-5.79,41.36-23.48s-5.34-36.34-23.48-41.36Z"/><path class="cls-2" d="M47.64,245.43a32.59,32.59,0,0,1-7.38-.85A32.28,32.28,0,1,1,79,220.47h0a32.31,32.31,0,0,1-31.38,25Zm-.06-61.88A29.59,29.59,0,1,0,76.4,219.86h0a29.63,29.63,0,0,0-22.11-35.53A29.18,29.18,0,0,0,47.58,183.55Z"/><path class="cls-3" d="M293.24,114.65A36.73,36.73,0,1,1,242.63,103c17.27-10.79,39.63-5.06,50.61,11.69,1.77,2.7,6.14.18,4.36-2.55-9.75-14.86-27.4-22.76-45-18.69a41.78,41.78,0,1,0,45,18.69C295.89,109.35,291.52,111.88,293.24,114.65Z"/></g></svg>