<svg xmlns="http://www.w3.org/2000/svg" viewBox="0 0 304 304"><defs><style>.cls-1{fill:#3f81ff;}.cls-2{fill:#c94e23;}</style></defs><g id="shape_11" data-name="shape 11"><path d="M157.27,77c9,5.39,14.8,13.63,15.61,24.28a39.91,39.91,0,0,1-6.43,24.31c-5.83,8.91-13.58,14.58-23.56,18.24-8.8,3.24-18.25,4-27.4,5.79,1.91-.36-3.7.86-4.15,1-1.82.46-3.61,1-5.38,1.61-.73.26-5.11,2.13-2.58.9a49.54,49.54,0,0,0-6,3.48,35,35,0,0,0-12.22,13.58c-.45.91-.85,1.83-1.26,2.76,0,.07-.81,2.38-.38,1,.48-1.57-.3,1.33-.39,1.71-.22.89-.4,1.79-.56,2.7s-.52,5-.38,2.09a58.91,58.91,0,0,0,0,6.09c.08,1.58.22,3.16.41,4.74.08.67,1,6,.38,2.8q1.14,5.48,2.62,10.88c4.5,16.52,10.53,33.34,9.37,50.72-.56,8.4-5.7,15.93-14.83,16.38-7.67.38-17-6.36-16.38-14.83a66.68,66.68,0,0,0,0-9.69c-.13-1.61-.31-3.23-.54-4.83-.06-.42-.54-3.31-.21-1.45s-.47-2.21-.45-2.14c-1.47-6.7-3.46-13.27-5.35-19.86C53,204.42,49.62,189.42,51.69,174,54,156.78,64.63,141.8,78.41,131.77a69.13,69.13,0,0,1,23.4-10.92c4.53-1.14,9.17-1.91,13.77-2.69,4.92-.84,6-.9,9.92-1.79a66.69,66.69,0,0,0,7.1-2c.77-.27,1.53-.57,2.28-.87,2.47-1-2.68,1.85,1.38-.7a8.1,8.1,0,0,1,1.64-1.07c1.27-.34-1.39,1.73.32-.31a15.88,15.88,0,0,1,1.31-1.52c1.16-1-.8,1.93.39-.54.39-.8.81-1.59,1.21-2.4.68-1.41.3-1.34,0,0,.16-.83.39-1.69.57-2.53.39-1.75-.16-1,0,.22-.11-.77-.06-1.64-.15-2.43.33,3.1-.4-.49.31,1.4s.09.34-.2-.13c1.41,1.48,1.66,1.81.77,1s-.58-.57.82.47c-7-4.21-11.31-13.19-7-21,3.84-6.93,13.48-11.5,21-7Z"/><path class="cls-1" d="M116.57,35.84l117.49,69.42,16.82,9.94c11.26,6.65,16.2,22.92,8.81,34.24s-22.18,15.93-34.24,8.81L108,88.83,91.14,78.89C79.88,72.24,75,56,82.33,44.65s22.18-15.94,34.24-8.81Z"/><path class="cls-2" d="M67.11,222.41a58.73,58.73,0,1,1,58.73-58.73A58.8,58.8,0,0,1,67.11,222.41Zm0-110.38a51.65,51.65,0,1,0,51.65,51.65A51.71,51.71,0,0,0,67.11,112Z"/></g></svg>