<svg xmlns="http://www.w3.org/2000/svg" viewBox="0 0 304 304"><defs><style>.cls-1{fill:#ddd;}</style></defs><g id="shape_7" data-name="shape 7"><path class="cls-1" d="M83.88,222.28,64.12,186.62c-2.68-4.85-5.41-9.67-8.05-14.54-.78-1.44-1.5-2.9-2.2-4.38s-.17-2.55.73,2a19.58,19.58,0,0,0-.72-2.12q-.75-2.38-1.27-4.82c-.16-.78-.82-6.06-.49-2.23s0-2,0-2.78c0-1.44.05-2.88.16-4.32a12.44,12.44,0,0,0,.22-2.14c.16,1.16-.94,4.79-.19,1.47a72,72,0,0,1,2.37-8.26c1.53-4.34-2.17,3.92.09-.1.89-1.58,1.71-3.16,2.69-4.69.4-.62,3.56-5,1.21-1.87s1-1,1.6-1.63q1.55-1.59,3.21-3.05c.57-.49,1.16-.95,1.72-1.43,2-1.66-4.26,2.89-1.23.94a60.07,60.07,0,0,1,7.51-4.21c4.51-2-4.53,1.48.13-.05,1.58-.52,3.19-1,4.81-1.33,1.39-.31,3-.33,4.33-.77-4,1.3-3.86.3-2,.24.73,0,1.45-.08,2.17-.1,1.62,0,3.25,0,4.87.11.71,0,1.43.17,2.14.19,2.43.1-4.79-1-1.46-.23a60.75,60.75,0,0,1,8.28,2.28c.65.24,1.34.59,2,.78-4.83-1.42-3.21-1.47-1.87-.74,1.58.87,3.18,1.67,4.71,2.64,1.21.76,2.33,1.77,3.57,2.47-5-2.83-1.61-1.26,0,.25,1.07,1,2.1,2.07,3.08,3.18.5.55.95,1.14,1.45,1.7,2.73,3.07-2.76-4.33-.59-.79,2.76,4.51,5.28,9.12,7.85,13.75l22.51,40.63c5.19,9.38,18.42,13.8,27.87,8s13.57-17.81,8-27.87l-21.35-38.53c-2.75-5-5.31-10.13-8.38-14.9-9.55-14.82-23.59-25.94-40.58-31-32.16-9.59-69.67,5.8-84.17,36.55-7.38,15.64-9.93,33.25-5.38,50.16,2.27,8.43,6.28,15.93,10.46,23.48L48,242.15c5.19,9.39,18.42,13.8,27.87,8s13.57-17.81,8-27.87Z"/><path d="M187.81,106.93c-23.94,0-45.42,17.45-50,41a51.17,51.17,0,0,0,23.05,53.35c17.4,10.74,40.18,10.31,56.75-1.85a51.31,51.31,0,0,0,19.94-53.08c-5.5-23.24-26-39.08-49.71-39.43-3,0-3,4.68,0,4.72C207,111.94,224,123.18,231,141.21a46.23,46.23,0,0,1-10.44,49.49c-28.59,28.59-79.14,7.81-79-32.74.06-25.24,21-46.31,46.3-46.31C190.85,111.65,190.85,106.93,187.81,106.93Z"/><path d="M295.42,139.65c-5.5-23.24-26-39.08-49.71-39.43-23.94,0-45.42,17.45-50,41a51.17,51.17,0,0,0,23,53.35c17.4,10.74,40.18,10.31,56.75-1.86A51.3,51.3,0,0,0,295.42,139.65Z"/></g></svg>