<svg xmlns="http://www.w3.org/2000/svg" viewBox="0 0 304 304"><defs><style>.cls-1{fill:#adcfd8;}.cls-2{fill:#b57c64;}.cls-3{fill:#3f81ff;}</style></defs><g id="shape_4" data-name="shape 4"><rect class="cls-1" x="163.88" y="226.42" width="37.7" height="38.46" rx="17.7" transform="translate(227.22 -57.26) rotate(45)"/><path class="cls-2" d="M86.09,85.08c-20.33,0-38.56,14.81-42.47,34.81a43.44,43.44,0,0,0,19.57,45.29c14.76,9.12,34.11,8.75,48.17-1.57A43.33,43.33,0,0,0,86.09,85.08c-2.58,0-2.58,4,0,4,16.26.24,30.72,9.78,36.65,25.09a39.24,39.24,0,0,1-8.86,42c-24.27,24.27-67.18,6.63-67.1-27.79,0-21.43,17.84-39.31,39.31-39.31C88.67,89.09,88.67,85.08,86.09,85.08Z"/><path class="cls-3" d="M144.87,36h0A49.73,49.73,0,0,0,95.14,85.72h0c0,44.31,53.57,66.5,84.89,35.17h0C211.36,89.56,189.17,36,144.87,36Z"/><path d="M222.91,249.65h-81V133.94a30.53,30.53,0,0,1,30.5-30.5h20a30.54,30.54,0,0,1,30.51,30.5Zm-74.61-6.44h68.18V133.94a24.1,24.1,0,0,0-24.08-24.07h-20a24.1,24.1,0,0,0-24.07,24.07Z"/></g></svg>